<svg xmlns="http://www.w3.org/2000/svg" width="48" height="48" viewBox="0 0 48 48">
    <path fill="#fff" d="m23.685 28.887 24.315-27.331-26.199 19.334 6.1737-20.89-13.229 19.944-2.0919-12.999-3.0339 14.221s-3.1119-4.0836-3.0859-4.1076c0 6.9433-1.3059 15.998 2.2759 20.416 4.7558 5.8654 18.875 0.72193 25.307-0.88991l-10.04-2.0538 14.771-5.6394zm-0.50598 8.0012c-2.3619 0.50795-4.7518 0.87391-6.8697 0.87391-2.8079 0-4.7198-0.62994-5.6798-1.8758-0.89996-1.1679-1.4659-3.0737-1.7259-5.8294-0.17999-1.8898-0.19199-3.9656-0.15599-6.0634l2.0959 2.7517 1.4859-6.9713 1.056 6.5593 7.8297-11.807-3.7158 12.581 13.193-9.735-12.469 14.017h7.1197l-7.5397 3.3597z" />
    <path fill="#fff" d="m16.367 41.364c-1.5614 6.442-9.0108 8.8078-13.643 4.333-4.6326-4.4748-3.1236-12.579 2.7639-14.842-1.6684 6.8763 4.5949 12.927 10.88 10.511z" />
</svg>