<svg xmlns="http://www.w3.org/2000/svg" width="512" height="512" viewBox="0 0 512 512">
	<path fill='#fff' d="M226.1,152.2c-1.4-4.2,4.7-9.9,7.4-14.1c0.8-1.4,1.2-2.9,1.6-4.5c0.4-1.8,0.6-3.5,0.7-5.3c0.3-3.8,0.7-7.7,0.5-11.5	c-0.2-2.9-1.5-5.8-2-8.6c-0.5-3-2.4-4.9-4.9-6.3c-3.5-1.9-7.2-3.6-10.7-5.6c-2.2-1.2-4-1.1-6.1,0.1c-3.4,2-7,3.9-10.6,5.8	c-2.2,1.1-3.4,2.9-4,5.1c-1.6,6.9-2.9,13.6-1.6,20.9c1.1,5.5,2.1,10.7,5.6,15.2c2.3,2.8,4,6.1,6,9.2c-3.1,1.2-6.3,2.2-9.3,3.4	c-6.1,2.6-12.8,3.6-17.7,8.6c-1.8,1.9-2.6,3.5-1.6,6c0.4,1,0.8,1.9,1.2,2.9c-13.1,8.7-26.8,16.5-35.1,30.5c-1.2-1-2.1-1.7-2.9-2.4	c-4.5-3.4-8.5-7.4-13.7-9.8c-7.8-3.6-15.6-7.5-23.3-11.3c-0.7-0.3-1.3-0.9-1.9-1.5c-1.1-1.2-1.9-2.6-3-3.5c-2.2-1.7-4.3-3.1-6.8-4.4	c-1.7-0.9-3.7-1.7-5.6-1.7c-3.7,0-7.3-0.6-10.8-1.7c-2.2-0.7-4.4-1.3-6.7-2c-1.8-0.5-3.4-0.2-4.4,1.2c-2,2.6-3.8,5.2-5.3,7.9	c-1.5,2.7-0.8,4.4,1.8,6.3c3.8,2.7,7.8,5.2,11.3,8.3c4,3.6,8.4,6,13.7,6.9c1.5,0.3,3.1,0.7,4.3,1.6c7.7,5.6,15.5,11.1,22.9,17.1	c7.5,6.1,15.9,10,24.6,13.8c2.2,1,3.9,0.5,5.4-1.2c1-1.1,2-2.2,3-3.3c0.5,0.5,0.8,0.9,1.1,1.3c1.4,1.6,3.4,2.3,5.2,1.1	c6.9-4.2,13.8-8.5,20.6-12.9c2.7-1.8,5.2-4,7.6-6c7.7,15.4,7.4,32.1,9.2,48.6c-5.3,0.2-10.8,0.5-16.2,0.7	c-7.4,0.2-14.5,0.6-21.4,3.7c-4.2,1.9-8.6,3.1-12.9,4.8c-1,0.4-1.9,1-2.6,1.6c-2.6,1.8-2.3,4.5-2.6,7.1c-0.1,0.9-0.4,2-1,2.6	c-4.6,4.3-9.4,8.4-14.1,12.8c-4.2,3.8-7.9,7.9-10.9,12.9c-6.2,10.2-12.6,20.4-18.9,30.5c-2.8,4.5-2.8,4.5,0.4,8.7	c0.1,0.1,0,0.3-0.1,0.7c-5-1.6-9.2,1-13.5,2.8C73,347.3,68,349,63,350.8c-2.8,1-5.8,1.6-8.5,2.6c-1.3,0.5-2.5,1.4-3.3,2.4	c-1.6,1.9-2.8,3.9-4.2,6c-2.1,3.2-0.5,6.8,3.3,7.3c3.1,0.4,6.4,0.6,9.6,0.9c12.5,1,24.9,1.9,37.4,2.9c2.9,0.3,5.7-0.1,7.6-2.2	c1.4-1.5,3-2.6,4.7-3.7c1.9-1.3,2.3-3,1.8-5.1c-0.6-2.3-1.2-4.6-1.7-7c-0.1-0.6,0-1.5,0.4-1.9c7.7-8.2,15.6-16.4,23.2-24.8	c4.6-5.1,9-10.5,13.2-16c3-3.9,5.7-8.2,8.3-12.5c0.9-1.4,1.9-1.6,3.3-1.4c3.1,0.4,6.4,0.6,9.5,0.6c4.9,0.1,9.8,0,14.8,0	c-0.4,0.8-0.9,1.9-1.4,2.9c-1.7,3.6-3.9,7.2-4.9,10.9c-1.8,6.7-2.7,13.5-4.1,20.3c-0.5,2.4,0.1,4.2,2.2,5.8	c5.4,4.2,11.3,7.4,17.5,10.3c1,0.5,2.3,0.4,3.4,0.6c1,0.2,2.1,0.2,2.8,0.7c4.7,3,9.4,6.4,14.1,9.4c2,1.3,3.9,2.4,6.1,3.1	c11.9,4,23.8,7.9,35.8,12c2.7,1,5.4,1.8,8.1-0.4c0.2,1.5,0.5,2.6,0.5,3.6c0.1,2.7,1,5.1,2.7,7.4c2.5,2.9,5,6,6.9,9.3	c2.7,4.7,4.9,9.7,7.4,14.5c0.7,1.3,1.7,2.6,2.8,3.2c2.4,1.4,5,2.4,7.6,3.4c2.1,0.9,3.8,0.3,5.5-1.2c1.9-1.7,2.6-3.6,2.3-6.2	c-1.1-12.3-2-24.6-2.9-36.9c-0.4-4.3-0.7-8.6-1.3-12.9c-0.1-1.1-0.9-2.3-1.7-2.9c-2.1-1.6-4.3-2.9-6.5-4.4c-1.9-1.3-3.6-1.5-5.7-0.6	c-2.3,1-4.6,1.9-6.6,2.6c-1.4-1.2-2.4-2.2-3.5-2.8c-8.4-5.1-16.8-10.2-25.3-15.2c-8.4-4.9-16.3-10.8-25.8-13.5	c-0.1,0-0.2-0.2-0.4-0.5c4.5-8.1,9.1-16.3,13.6-24.6c3.2-6,6.3-12.2,9.4-18.2c0.8-1.6,1-3.3-0.3-4.6c-1.5-1.5-1.6-3-1.5-4.9	c0-3,0.1-6.1,0-9.1c-0.1-1.9-0.4-3.7-0.7-5.7c1.4-0.2,2.9-0.4,4.6-0.6c3.7-0.4,4.4-0.9,5.4-4.5c2.2-8.1,4.3-16.4,6.2-24.6	c1.5-6.8,2.6-13.5,3.8-20.3c0.5-2.5,0.8-4.9,1.2-7.6c0.9,0.2,1.5,0.4,2,0.4c2.6-0.3,3.6,1.1,3.7,3.4c0.1,1.3,0.4,2.6,0.6,3.7	c0.9,4.6,1.4,9.3,2.9,13.7c2.3,6.5,5.5,12.8,8,19.1c1.6,3.8,4.6,7.5,2.6,12.1c0,0.1,0,0.1,0,0.2c0.2,3.5,0.3,7,0.7,10.5	c0.1,1.2,0.5,2.6,1.2,3.4c2.9,3.4,4.9,7.3,6.2,11.5c0.7,2.2,1.6,4.3,2.4,6.5c0.9,2.4,2.3,3.2,4.8,3.1c2.6-0.1,5.4-0.3,8-0.6	c4.1-0.4,4.9-1.3,4.9-5.5c0-6,0.1-12.1,0.3-18.1c0.1-3-0.2-6-1.5-8.9c-1.5-3.3-3-6.7-3.9-10.2c-2.3-9.7-4.1-19.5-6.3-29.2	c-1.3-5.5-1.8-11.2-4.4-16.3c-1.9-2.8-3.2-6.7-4.8-10c-1.5-3.1-2.6-3.8-6.1-3.7c-0.7,0-1.3-0.1-2-0.1c0.8-3.8,0.4-4.7-2.7-6.6	c-4.9-2.9-9.6-6.3-14.8-8.6c-4.3-2-8.4-3.4-13.3-5.5C243.8,159.6,228.2,158.5,226.1,152.2z M92.2,188.6c-0.5,1.1-1.2,1.4-2.3,1.1	c-3.8-0.9-7.5-2.1-10.5-4.9c-3.3-3-7.2-5.6-10.7-8.3c1.3-3.2,1.6-3.3,4.7-2.5c4.8,1.4,9.5,2.6,14.6,2.7c2.6,0.1,5.2,2.5,7.9,3.8	C94.6,183.7,93.3,186.2,92.2,188.6z M142.1,220.5c-0.8,1.4-1.8,0.8-2.8,0.4c-8.5-3-15.7-8.3-22.8-13.8c-6.1-4.6-12.2-9.2-18.6-14	c1.6-2.3,2.9-4.2,4.3-6.2c9,4.3,17.9,8.2,26.4,12.9c4.4,2.4,8,6.2,12,9.3c0.3,0.3,0.6,0.7,0.7,1.1c0.7,2.3,1,4.6,2.2,6.6	C144.4,218.8,142.8,219.4,142.1,220.5z M180.9,199.2c-0.1,0.6-0.4,1.3-0.9,1.7c-8.2,7-16.9,13.4-27.1,18.4c-1.3-2.4-2.8-4.9-4-7.6	c-0.2-0.5,0.7-1.7,1.2-2.5c7.1-11.1,17.2-18.9,28.2-25.8c1.3-0.8,2.6-1.7,4.2-2.7C182,187.2,181.5,193.2,180.9,199.2z M271.3,362.4	c3.1-1.4,6.4-2.6,9.5-3.8c0.5-0.2,1.3-0.4,1.7-0.1c2.2,1.5,4.5,2.5,4.7,6c0.7,12.1,1.9,24,2.8,36c0.2,2.6,0.4,5.2,0.7,8.1	c-2.6-0.9-4.4-1.7-5.5-4.1c-2.5-5.3-5.4-10.4-8.1-15.6c-0.7-1.3-1.8-2.5-2.7-3.5c-3.1-3.3-5-7.1-4.8-11.8c0.1-2.3-0.5-4.6-0.7-6.9	C268.4,364.6,269.4,363.1,271.3,362.4z M205.3,135.3c-0.9-1.6-0.9-3.7-1.4-5.5c-1.7-6.8-1.1-13.3,0.7-20c0.2-0.6,0.8-1.3,1.4-1.6	c2.7-1.6,5.6-3.1,8.4-4.6c0.7-0.4,1.9-0.3,2.6,0c2.8,1.3,5.6,2.7,8.2,4.3c1,0.6,1.8,1.8,2.2,2.8c0.7,2.1,1.5,4.1,1.6,6.3	c0.1,3.8-0.3,7.7-0.4,11.5c-0.1,3.9-1.6,7.3-3.9,10.4c-1.7,2.3-3.1,4.7-4.6,7.1c-0.9,1.5-1.8,2.1-3.6,2c-2.1-0.1-3.3-0.6-4.3-2.2	C209.9,142.2,207.4,138.9,205.3,135.3z M103.7,362.5c-2.1,1.4-3.5,3.5-6.7,3.1c-12.6-1.2-25.1-2.1-37.6-3c-1.2-0.1-2.4-0.2-3.5-0.3	c-0.1-0.3-0.2-0.6-0.4-0.9c1.1-0.7,2.2-1.6,3.3-2c9.2-2.6,18.3-5.2,26.7-9.9c0.4-0.2,0.9-0.4,1.3-0.4c4.7,0.3,9.5,0.6,14.2,0.8	c1,3.8,1.9,7.4,2.7,11C104,361.5,104,362.3,103.7,362.5z M149.1,295.7c-4.3,6.3-8.1,12.9-13,18.6c-6.5,7.7-13.6,14.9-20.5,22.4	c-2.6,2.9-5.4,5.8-8.2,8.8c-3.5-2.8-7-5.5-10.5-8.2c5.9-9.5,11.9-18.2,16.9-27.5c5.5-10,14.1-16.8,22.2-24.2	c0.8-0.8,1.7-1.5,2.6-2.2c3.6-0.6,4.4-0.7,8.1,2.7c1.6,1.8,3.2,3.5,5.1,5.5C150.9,293.1,150,294.5,149.1,295.7z M146.1,278.5	c-0.9-1-1.5-2.4-2.3-3.5c-0.7-1.2-0.8-2.3,0.8-2.8c6.4-2.3,12.7-4.7,19.1-6.8c2.2-0.7,4.5-0.5,6.9-0.6c8.1-0.4,16.4-0.8,24.5-1.1	c1.6-0.1,3.1,0,4.8,0c0.2,1.9,0.6,3.2,0.5,4.6c0,1.1-0.3,2.2-0.9,3c-3.8,6.2-7.7,12.4-11.7,18.4c-0.5,0.7-1.5,1.5-2.4,1.5	c-7.3,0.4-14.8,3-21.7,0.9C158.6,290.3,149.9,282.6,146.1,278.5z M233.1,337.1c10.5,6.4,21,12.7,32,19.2c-2.5,4.3-4.8,8.4-7.2,12.7	c-10.8-3.5-21.2-7.4-31.8-10.4c-9.3-2.6-16.3-9-24.2-13.9c-0.8-0.5-1.3-2-1.3-3c0-2.6,0.2-5.1,0.6-7.6c0.1-0.8,1-1.8,1.8-2.1	c3.4-1.3,6.9-2.4,10.3-3.3c0.6-0.2,1.5,0,2.2,0.2C221.8,330.5,227.5,333.7,233.1,337.1z M228.8,267.6c2.6,1.8,3.2,7.4,5.6,10.1	c-3,5.8-7.4,13.4-11,20.1c-3.9,7.3-8,14.4-12,21.7c-1.1,2-2.4,3.2-4.6,3.7c-2.9,0.7-5.9,1.6-8.8,2.5c-2.6,0.7-3.5,1.7-3.8,4.5	c-0.4,3.8-0.8,7.7-1.3,12.3c-4.5-2.8-8.6-5.4-12.8-8c-0.4-0.3-0.7-1.3-0.6-1.9c1.3-6.5,2.2-13,3.9-19.4c1-3.5,3.2-6.7,5-9.9	c6.8-12.6,14.2-26.8,22.7-38.3c1.8-2.2,2.7-2.6,5.2-2.6C220,262.4,226,265.7,228.8,267.6z M249.4,217.5c-2,9.2-4.5,18.3-6.7,27.5	c-0.4,1.6-1,2.2-2.6,2.3c-6.9,0.4-13.6,1-20.4,1.5c-6.2,0.5-12.5,1-18.6,1.4c-0.7,0.1-1.5,0-2.5,0c-0.7-7.5-1.3-14.7-2.2-22	c-0.4-3.2-1.4-6.4-2.3-9.5c-1.6-5.2-3.4-10.3-4.8-15.5c-0.7-2.5-0.7-5.1-0.5-7.7c0.3-5.4,1.1-10.8,1.5-16.2c0.3-3.1-1.1-5.8-2.6-8.3	c-0.8-1.4-0.8-2.4,0.8-3c2.4-1.1,4.6-2.3,7.1-3.1c4.8-1.8,9.6-3.5,14.5-4.9c2.6-0.7,5.3-0.6,8.2-0.9c-3.3,4.4-3.3,9.6-4.8,14.4	c-0.6,2.1,0.1,3.5,1.5,5c2.8,3.1,6.7,4.7,10.3,6.5c1.3,0.6,2.6,1.1,3.8,1.9c5.6,3.7,11.8,6,18,8.1c1.8,0.6,3.7,0.9,6,1.5	C251.8,203.4,250.9,210.5,249.4,217.5z M267.4,187.7c-0.6,0.6-1.4,1.8-2.1,2.7c-11.4-1.1-22.4-3.4-32.3-9.9c-2.9-2-6.4-3.2-9.5-4.8	c-2-1-2.9-2.1-2.2-4.7c1.1-3.9,2.1-7.9,5.7-10.7c15.2,6.2,31.2,11,44.9,21C271,183.9,269.8,185.4,267.4,187.7z M275.7,215.2	c-1.9-5.1-2.2-10.8-3-16.2c-0.3-1.6-0.4-3.4,0.1-4.9c0.9-3.2,4.3-5.2,7.7-4.5c0.7,0.1,1.3,1.1,1.8,1.7c5.1,8.4,7,18,8.8,27.4	c1.4,6.7,2.8,13.3,4.2,20c0.2,0.8,0.3,1.6,0.5,2.8c-2.8,0.6-5.4,1.2-8,1.7C283.5,233.6,279.1,224.6,275.7,215.2z M301.3,260.1	c-0.3,5.6-0.1,11.3-0.1,17.1c-2,0.1-3.3,0.2-4.7,0.3c-0.7-1.7-1.3-3.2-1.9-4.9c-1.5-4.3-3-8.5-6.2-12c-0.6-0.7-0.7-1.9-0.8-2.8	c-0.2-2.2-0.2-4.3-0.3-6.6c3.5-0.9,7-1.9,10.6-2.7C299.1,252.2,301.5,255.6,301.3,260.1z M400.7,308.1c-0.6,0-1.3-0.1-1.9-0.4	c-1.9-0.8-3.1-2.6-3.1-4.6v-38.5h-66c-2.7,0-5-2.2-5-5V221c0-2.7,2.2-5,5-5h65.9v-38.5c0-2,1.2-3.8,3.1-4.6c1.9-0.8,4-0.4,5.4,1.1	l64.4,62.8c1.8,1.8,2,4.6,0.5,6.6l-0.4,0.5l-64.5,62.8C403.2,307.6,402,308.1,400.7,308.1z M398.6,300.9	C398.5,300.9,398.5,300.9,398.6,300.9L398.6,300.9z M332.6,256.6h66c2.7,0,5,2.2,5,5v34.3l57-55.6l-57.1-55.7V219c0,2.7-2.2,5-5,5	h-65.9V256.6z M398.5,179.7C398.5,179.7,398.5,179.8,398.5,179.7L398.5,179.7z"/>
</svg>