<svg xmlns="http://www.w3.org/2000/svg" width="512" height="512" viewBox="0 0 512 512">
	<path fill='#fff' d="M467.9,245.8c-20.6-8.2-41.1-16.5-61.7-24.7c-14.2-5.7-28.3-11.4-42.5-17c-3.5-1.4-4.8-1.2-7.3,1.7c-1,1.1-1.8,0.7-2.7,0.3	c-21.3-9.4-43.7-12.4-66.8-10.2c-28,2.7-54,11.7-78.5,25.4c-7.4,4.2-14.6,8.8-22.1,13.3c-5.5-3.6-11.3-7.2-16.9-11	c-3.9-2.6-7.6-5.3-12.1-0.7c-0.1-0.2-0.3-0.4-0.4-0.5c0.3-10,0.7-20,1-30.6c1.4,0.8,2.3,1.2,3.1,1.7c7.5,4.1,14.9,8.3,22.4,12.4	c2.4,1.3,4.9,2.2,7.6,0.5c16.3-10.4,32.7-20.9,49-31.3c2.3-1.5,3.1-3.5,2.9-6.1c-0.5-6.6-1.1-13.3-1.6-19.9	c-0.2-3.1-1.6-5.1-4.6-6.2c-14-5.2-28.1-10.4-42-16c-4.4-1.8-8.4-2.2-12.6,0.3c-0.8,0.5-2.2,0.5-3.1,0.2c-13-4.2-25-1-32.8,10.3	c-4,5.8-8.5,9.8-15.1,12c-2.4,0.8-3.5,2.9-2.9,5.4c1.1,3.9,2.6,7.6,3.8,11.4c0.4,1.4,0.6,2.9,0.4,4.3c-0.8,6-2.1,11.9-2.8,18	c-2,16.9-2.2,33.9-1.5,50.9c0.1,1.5-0.4,2.3-1.6,3.1c-3.8,2.4-7.5,4.9-11.3,7.3c-20.1,13.1-40.1,26.1-60.2,39.2	c-3.7,2.4-4.2,5.5-1.3,8.8c1.9,2.1,3.8,4.2,5.7,6.4c19.5,21.8,38.9,43.5,58.4,65.3c4,4.5,7.8,9.2,12.2,13.2	c5.4,4.9,11.3,9.1,17,13.6c3.6,2.9,5.8,2.7,8.9-0.6c11.6-12.2,23.2-24.4,34.8-36.7c18-19,36.1-38,54.1-57c1.7-1.8,2.5-3.8,2.2-6.3	c-0.8-6.8-1.5-13.7-2.3-20.5c-0.3-2.5-1.3-4.3-3.5-5.6c-4.9-3-9.7-6.2-14.6-9.3c-4.1-2.6-8.2-5.3-12.5-8.1c1.1-0.6,1.8-1.2,2.6-1.6	c9-4.4,17.8-9.2,27.1-13c24-9.9,48.9-14.6,74.9-11c5.7,0.8,11.4,2.3,17.5,3.6c-0.8,1.1-1.2,1.7-1.6,2.2	c-7.9,9.8-15.9,19.5-23.8,29.3c-1.2,1.5-2.4,3.2-2.8,5c-1.7,6.7-3,13.6-4.7,20.3c-1.4,5.7,0.5,6.7,3.8,8.7	c35.5,21.1,71,42.1,106.6,63.2c3.4,2,5.1,1.9,8.1-0.5c6.8-5.6,13.7-11.2,20.5-16.8c1.8-1.5,3-3.2,3.7-5.4c2.1-7.1,4.3-14.2,6.5-21.2	c6.4-20.6,12.7-41.2,19.1-61.7C472.7,249.3,471.8,247.4,467.9,245.8z M159,231.9c2.6-2.3,4.7-1.9,7.3,0c4.1,3,8.4,5.5,12.9,8.4	c-7,5.7-13.8,11.2-20.8,17c-0.2-3.5-0.5-6.7-0.7-9.9c-0.2-3.9-0.3-7.9-0.6-11.8C157,233.8,157.8,232.9,159,231.9z M173.6,190.5	c-3.5-2-7-4.1-10.6-6c-3.6-1.8-3.9-1.9-3.3-5.9c0.2-1.6,0.7-3.2,1.1-5.1c3.8,1.9,7.4,4,11.1,5.5c4.2,1.7,6.9,4.2,7.2,8.9	c0.2,1.9,0.9,3.8,1.6,6.3C178,192.8,175.8,191.7,173.6,190.5z M233.9,167.8c0,0.7-1.1,1.6-1.9,2.2c-9.8,6.3-19.6,12.5-29.4,18.8	c-3.9,2.5-7.9,5-12.3,7.8c-1.5-5.4-2.8-10.4-4.2-15.5c15.6-8.7,31-17.4,46.9-26.3C233.4,159.4,233.8,163.6,233.9,167.8z M193,135.6	c11,4.2,22.1,8.3,33.7,12.7c-6.5,3.6-12.5,7-18.5,10.4c-8,4.5-16.1,9-24.1,13.6c-2,1.2-3.6,1.4-5.8,0.3c-4.6-2.5-9.3-4.8-14-7	c-1.3-0.6-1.8-1.2-1.2-2.7c1.6-4.3,3-8.6,6.2-12c2.1-2.3,4.1-2.9,6.8-1.4c2.8,1.5,5.7,3.1,8,5.2c4.7,4.2,11,3,14.7-0.1	c3.4-2.7,4.1-6.4,1.5-9.9c-1.8-2.5-4-4.6-6.2-6.8c-0.5-0.6-1.4-0.8-2.1-1.3C192.5,136.3,192.7,135.9,193,135.6z M238.2,295.3	c0.1,1-0.9,2.3-1.7,3.2c-7,7.5-14.1,14.9-21.1,22.3c-19,20-37.9,40-56.8,59.9c-2.1,2.2-4.2,4.5-6.4,6.6c-0.4,0.4-1.5,0.8-1.8,0.6	c-3.8-2.9-7.5-5.9-11.4-9c32.7-31.7,65.1-63.2,98-95.2C237.4,288.1,238,291.7,238.2,295.3z M231.3,273.7c0.6,0.4,1.2,0.8,2,1.5	c-33.6,32.7-67.1,65.2-100.7,97.8c-23.3-26.1-46.6-52.1-70-78.3c22.1-14.4,44.1-28.7,66.4-43.3c0.3,3.9,0.6,7.3,0.9,10.7	c1,9.6,1.9,19.1,3,28.7c0.2,2.1,0.6,4.3,1.1,6.4c0.7,2.9,2.4,4.3,5.4,4.3c8.6,0,16.1-2.7,22.2-8.9c12.3-12.3,25.7-23.2,40.1-33	c3.7-2.5,3.7-2.6,7.5-0.1C216.6,264.3,223.9,269,231.3,273.7z M306.8,217c-23.2-0.8-45.3,4.3-66.6,12.9	c-29.9,12-56.1,29.7-79.4,51.8c-2.3,2.2-4.5,4.4-6.8,6.5c-3.4,3-7.4,4.5-12.3,4.7c-0.8-6.8-1.7-13.2-2.2-19.7	c-1-12.2-2.1-24.4-2.6-36.6c-0.4-10.3-0.1-20.6,0.3-31c0.4-11.6,1.5-23.2,4.2-34.6c2.3-9.7,5-19.3,11-27.6	c7.4-10.1,18.3-12.3,28.8-5.4c4.3,2.8,8.2,6.2,11.5,10.1c-0.1,0.2-0.3,0.5-0.4,0.7c-1-0.4-2.1-0.7-2.9-1.3c-3.9-3-7.9-5.9-12.8-7	c-6.2-1.5-10.8,1-14.5,5.7c-4.4,5.5-6.4,12-8.3,18.7c-2.3,8.4-3.6,17-4.1,25.7c-0.5,10.5-1.4,21.1-1.3,31.6	c0.1,12.7,1.1,25.4,1.7,38c0.1,1.8,0.3,3.6,0.4,5.4c0.1,2.2,1.1,3.8,3.3,4.6c2.1,0.8,3.6-0.4,5-1.6c5.5-4.8,10.8-9.7,16.4-14.3	c12.4-10.2,25.5-19.2,39.6-26.8C231.1,218.9,248,212,266,208c15.4-3.5,31.1-4.8,46.9-3.4c15,1.3,29.3,5,42.6,12.1	c17.8,9.4,31.6,22.9,41.8,40.2c0.2,0.4,0.4,0.8,0.6,1.2c0.6,1.3,1.8,2.6,0.3,4c-1.5,1.5-3.3,2.9-5.5,1.6c-1.9-1.1-4.1-2.3-5.4-4.1	c-10.6-15.5-24.3-27.1-41.6-34.3C333.3,220.2,320.3,217.5,306.8,217z M418,350.4c-0.5,0.4-1.8,0.3-2.4-0.1	c-12.8-7.5-25.5-15.1-38.2-22.7c-15.5-9.2-31-18.4-46.5-27.6c-5.9-3.5-11.8-7-17.7-10.5c-0.6-0.4-1.2-1.4-1.1-2	c0.9-4.6,1.9-9.1,3.1-14.1c39.5,21.5,78.7,42.9,118.4,64.4C428.1,342.2,423.1,346.4,418,350.4z M438.6,330.7	c-40-21.8-79.7-43.4-119.7-65.2c2.4-3,4.6-5.7,6.8-8.4c5.8-7.2,11.7-14.4,17.5-21.6c1-1.3,2-1.5,3.4-0.7c13.6,6.8,24.8,16.4,33.2,29	c3.5,5.2,8.3,8.2,14.1,8.7c4.6,0.4,8.7-2.1,11.4-6c2.4-3.4,2.8-7,0.7-10.9c-7.4-13.8-17.1-25.7-29.6-35.3c-0.8-0.6-1.6-1.3-2.4-1.9	c0.1-0.2,0.2-0.4,0.3-0.6c29.2,11.7,58.4,23.4,88,35.2C454.6,278.9,446.7,304.7,438.6,330.7z"/>
</svg>