<svg xmlns="http://www.w3.org/2000/svg" width="512" height="512" viewBox="0 0 512 512"><path fill="#fff" d="M397.5,307.1c-12-7.7-23.9-15.4-36-23c-1.5-1-2-1.8-1.6-3.7c1.5-7.2,2.8-14.5,2.1-21.9c-0.8-7.9-1.9-15.8-8.8-21.5	c-3.1-2.5-6.3-4-10.3-4.7c1.8-8.9,3.5-17.4,5.1-26c5.8-29.2,11.6-58.5,17.4-87.7c0.9-4.6-0.4-6.7-5-7.9c-19.5-4.7-39-9.6-58.7-14.1	c-4.4-1-7.1-3.1-9.5-6.7c-10.4-14.9-22.8-27.9-38.9-36.9c-8.3-4.6-16.9-7.7-26.5-7c-11.6,0.8-21.2,6.2-29.1,14.3	c-10,10.1-14.9,23-18.3,36.5c-6.3,25.5-6.2,51.3-3.9,77.3c0.2,2.2-0.3,3.2-2.5,4c-19.4,6.9-38.7,14-58,21c-2.5,0.9-4.1,2.7-3.8,4.9	c0.2,1.5,0.7,3,1.3,4.4c10.2,21.3,20.5,42.5,30.7,63.7c8.1,16.7,16.1,33.4,24.2,50.1c2.3,4.6,4.3,9.6,7.4,13.6	c13.8,18.1,28,35.8,42.1,53.7c19.3,24.6,38.7,49.1,58,73.7c2.8,3.6,6.9,3.7,9.8,0.2c7.2-8.7,14.3-17.5,21.5-26.2	c24-29.3,48-58.7,72-88c3.9-4.8,8.1-9.4,11.4-14.6c3.9-6.2,6.9-13,10.2-19.5C401.6,311.4,401,309.3,397.5,307.1z M355.2,123.4	c-1.1,5.5-2.1,10.7-3.1,15.8c-6,30.2-12,60.4-18.1,90.6c-0.2,0.9-1,2-1.7,2.3c-10.6,2.9-19.1,9-26.6,16.6	c-3.5,3.4-6.7,7.1-10.1,10.6c-0.5,0.6-1,1.1-1.8,1.9c-1.2-4.7-2.3-9.2-3.4-13.6c-0.2-0.7-0.3-1.4-0.5-2c-2.8-7-3-14.3-2.9-21.8	c0.5-24.7,0.7-49.3,1-74c0-1.4,0.4-2,1.7-2.5c10.3-3.7,20.5-7.6,30.8-11.3c10.4-3.8,20.8-7.7,31.3-11.5	C352.8,124.1,353.8,123.8,355.2,123.4z M297,106.9c0.5-1.7,1.3-1.9,2.9-1.5c13.9,3.5,27.7,6.9,41.6,10.4c1.2,0.3,2.4,0.5,4.2,0.8	c-3.6,1.4-6.6,2.5-9.7,3.7c-16.8,6.2-33.6,12.3-50.5,18.5c-0.9,0.3-2.2,0.4-3.1,0c-19.7-7.3-39.3-14.7-59-22	c-0.3-0.1-0.5-0.3-1.4-0.8c7.8-1.8,15-3.5,22.2-5.2c5-1.2,10-2.3,14.9-3.6c1.8-0.5,2.8,0,3.9,1.3c3.3,3.7,6.5,7.4,10.1,10.8	c3.8,3.5,8.4,2.8,12.6,0.8C291.4,117.4,295.3,113.1,297,106.9z M278.7,147.6c-0.3,16.4-0.5,32.7-0.8,49.6c-5-3.5-10.9-4.6-14.4-9.8	c-4.2-6.2-9.2-11.6-14.9-16.4c-8.2-7-18-10.6-28.4-12.8c-2-0.4-3.1-0.9-3.4-3.3c-0.9-6.7-2.5-13.4-3.2-20.1	c-0.4-3.5,0.7-7.1,1.1-11.1C236.3,131.7,257.5,139.6,278.7,147.6z M219.7,107c0.6-4.9,6.3-14.2,10.6-16.1c1.8-0.8,4.3-0.8,6.3-0.4	c6.2,1.2,11.5,4.3,16.8,8.6C241.8,101.8,230.8,104.4,219.7,107z M183.6,136.1c0.4-11.6,1.6-23.2,4.2-34.6c1.7-7.4,3.9-14.6,7.4-21.4	c2.2-4.3,4.9-8.4,8-12.1c5.2-6.1,12-10.3,19.8-12.2c5.6-1.3,11.4-0.7,17,1.3c8.8,3.2,16.6,8.2,23.5,14.4	c5.8,5.3,10.9,11.3,16.1,17.2c2.6,2.9,4.7,6.3,7.2,9.3c2.1,2.5,2,5.3,0.5,7.7c-1.3,2.1-3.4,3.7-5.3,5.3c-1.6,1.3-3.1,0.7-4.5-0.7	c-5.8-6.1-11.3-12.5-17.6-18.1c-6.9-6.2-15.1-10.4-24.6-11.5c-5.6-0.6-10.2,1.2-14.1,5.1c-3.4,3.4-5.9,7.3-8,11.6	c-4.6,9.2-6.8,19-8.3,29c-1.3,9.1-2,18.4-2.8,27.6c-0.2,2.7-0.1,5.4,0,8.1c0.2,4.2,2.7,6.1,6.8,5.1c4.4-1,8.8-0.8,13.1,0.4	c7.1,2.1,14,4.8,19.8,9.6c8.7,7.2,15.2,16.1,20.8,25.9c11.9,20.7,18.8,43.1,23,66.4c0,0.2,0.1,0.5,0.1,0.7c0.6,2.6,1.1,5.3,4.3,5.9	c3,0.5,4.6-1.6,6.3-3.6c7.9-9.6,15.9-19.1,26.3-26c3.8-2.5,8.2-4.4,12.6-5.7c4-1.2,7.8,0.3,11.4,3c4.7,3.6,5.6,8.7,5.8,13.8	c0.2,6.4-0.6,12.9-1.6,19.3c-1,6.7-2.8,13.3-4.3,19.9c-0.2,0.7-0.4,1.4-0.8,2.5c-2.4-1.7-4.7-3.2-6.9-4.9c-0.5-0.4-0.5-1.5-0.4-2.2	c1.6-9.5,2.9-19,2.5-28.6c0-1-0.1-2-0.4-3c-1.3-3.9-5.7-4.4-9.1-1.4c-14.4,12.8-25.8,28.1-37,43.6c-4.7,6.4-9.1,13.1-13.8,19.5	c-0.8,1.1-2,2-3.1,2.9c-0.3-0.1-0.6-0.2-0.9-0.3c-0.9-4.8-1.9-9.7-2.6-14.5c-4.7-31.3-12.3-61.7-27-90.1c-4.7-9.1-10.1-17.8-18-24.5	c-3.3-2.8-6.9-5.4-10.8-7.1c-5.8-2.6-11.5-1-16.6,2.5c-2.8,1.9-5.5,4.1-8.5,5.6c-4.7,2.4-5.6,0.8-6.4-3.7	c-1.1-6.5-1.3-13.2-2.1-19.8C183.4,161.2,183.1,148.7,183.6,136.1z M331.4,275.9c-0.5,4-1,8-1.5,12.4c-2.7-1.9-5.1-3.5-7.8-5.4	c3-2.5,5.9-4.8,8.7-7.2C331,275.8,331.2,275.9,331.4,275.9z M255.2,272.7c-14,9.5-28,19-42,28.5c-5.2,3.6-10.4,7.1-15.9,10.9	c-5.9-15.8-11.8-31.3-17.6-47c20.9-11.1,41.6-22.1,62.8-33.4c1.9,4.4,4,8.6,5.6,13c2.9,8.3,5.5,16.7,8.3,25	C256.7,271.1,256.4,271.9,255.2,272.7z M124.4,205.7c17.5-6.3,34.6-12.6,52.2-19c0.3,2.7,0.8,5.1,0.9,7.6c0.3,4.2,2.1,7.9,4.6,10.9	c2.5,3,6.6,2.9,10,2.2c3.5-0.8,6.7-2.5,9.9-4.2c2.2-1.2,4.2-2.9,6.3-4.4c2.5-1.8,5.1-1.9,7.8-0.5c7.6,4,12.7,10.4,17.3,17.4	c1.3,1.9,2.3,4,3.6,5.9c0.9,1.3,0.6,2.1-0.6,2.8c-3.1,1.7-6.3,3.3-9.4,4.9c-4.4,2.3-8.8,4.7-13.2,7c-3.2,1.7-6.5,3.2-9.7,4.9	c-3.4,1.8-6.7,3.7-10.1,5.6c-3.6,1.9-7.2,3.8-10.8,5.7c-2.3,1.2-4.6,2.5-6.9,3.7c-1,0.6-1.7,0.6-2.6-0.3	c-16.1-16.5-32.3-32.9-48.5-49.3C124.9,206.5,124.8,206.2,124.4,205.7z M203.6,357.4c-0.4-0.5-0.9-1-1.3-1.5	c-6.8-8.7-13.9-17.2-20.4-26.2c-3.1-4.3-5-9.4-7.3-14.2c-12.4-25.7-24.9-51.5-37.3-77.2c-1.6-3.2-3.1-6.5-4.4-10	c0.3,0.3,0.7,0.5,1,0.8c11.5,11.6,22.9,23.2,34.4,34.9c0.9,0.9,1.7,2.1,2.1,3.2c11,29.3,22,58.7,33,88c0.2,0.6,0.4,1.3,0.6,1.9	C203.8,357.2,203.7,357.3,203.6,357.4z M275.6,448.8c-0.8-0.9-1.3-1.3-1.7-1.8c-16.3-20.7-32.7-41.4-48.8-62.2	c-2.2-2.9-3.1-6.8-4.5-10.3c-3.8-9.9-7.4-19.7-11.1-29.6c-0.2-0.4-0.2-0.8-0.4-1.2c0.1-0.1,0.3-0.2,0.4-0.2c2.4,2.7,4.8,5.5,7.2,8.2	c9.3,10.6,18.5,21.1,27.8,31.7c10.3,11.8,20.6,23.6,30.9,35.4c0.5,0.6,1,1.6,1,2.4C276.2,430.2,275.9,439.3,275.6,448.8z M348.4,357.7c-3.7,8.7-7.3,17.5-11,26.2c-0.3,0.7-0.6,1.4-1.1,2c-16.5,20.3-33.1,40.5-49.7,60.7c-0.3,0.3-0.6,0.6-0.9,1	c-0.2-0.1-0.4-0.1-0.6-0.2c0.3-8.8,0.6-17.6,1-26.4c0-0.7,0.5-1.5,0.9-2c12.3-13.7,24.6-27.4,36.9-41.1c8.6-9.5,17.2-19.1,25.8-28.6	c0.8-0.8,1.3-1.8,2-2.8c0.3,0.2,0.6,0.5,0.9,0.7C351.3,350.8,349.9,354.2,348.4,357.7z M281.4,411.1c-26.5-30.3-52.8-60.4-79.4-90.8	c19-12.9,37.9-25.7,57.1-38.8c0.8,4,1.8,7.9,2.5,11.8c1.8,10,3.4,20.1,5.2,30c0.8,4.2,2.1,8.2,6.2,10.7c3.1,1.9,5.4,2,8.6,0.2	c4.4-2.4,7.1-6.2,9.9-10.2c7.5-10.5,15.1-20.9,22.7-31.4c0.5-0.7,1.2-1.4,1.9-2.3c15.2,10.6,30.3,21.2,45.5,31.9	C334.9,351.8,308.3,381.3,281.4,411.1z M366.9,339.6c-0.2-0.1-0.3-0.2-0.5-0.3c1-2.4,2-4.8,2.9-7.1c1.2-2.8,2.5-5.7,3.5-8.6	c1.1-3.1,0.3-5.1-2.4-7c-5.1-3.5-10.2-7-15.2-10.6c-0.5-0.4-1.1-1.3-1-1.8c1-3.9,2.1-7.8,3.2-11.9c10.7,6.9,21.3,13.6,31.9,20.4	C381.8,321.9,374.3,330.7,366.9,339.6z"/></svg>