<svg xmlns="http://www.w3.org/2000/svg" width="512" height="512" viewBox="0 0 512 512">
	<path fill="#fff" d="M250.6,441c70.3-0.2,134.4-39.8,165.6-102.8c3.8-7.7,6.6-15.8,9.9-23.7c0.4-0.9,0.7-2,1.2-2.8c0.9-1.4,2.3-2,3.9-1.5 c1.6,0.5,2.4,1.8,2.3,3.5c0,0.7-0.2,1.5-0.5,2.2c-22.7,63.9-66.4,105.8-131.4,125.2c-21.8,6.5-44.2,8.2-66.8,6.3 c-44.5-3.9-83.3-21.1-115.9-51.7c-27.6-25.9-46.1-57.4-54.8-94.3C52,249.1,59.5,199.8,88,154.4c28.6-45.6,69.8-74.7,122.5-85.9 c52.2-11.1,100.9-1.6,145.8,27.4c2.9,1.9,3.7,3.9,2.4,5.8c-1.3,1.8-3.4,1.9-6.2,0.1c-20.1-13.2-41.9-22.6-65.6-27 c-59.8-10.9-113.2,3.1-159.1,43.1C97,144.9,77.5,179,69.5,219.3c-8.6,43.2-2.8,84.7,18,123.6c20.5,38.3,51,66,90.9,83.3 c19.6,8.5,40.1,13.2,61.4,14.3C243.3,440.7,247,440.8,250.6,441z"/>
	<path fill="#fff" d="M73.8,256c2.4-67.5,31.6-119.5,90.2-153.9c23.5-13.8,49.2-20.8,76.5-22.3c38.7-2,74.3,7.7,106.7,28.8 c0.6,0.4,1.3,0.9,1.8,1.4c1.1,1.2,1.4,2.7,0.5,4.2c-1,1.6-2.5,1.9-4.1,1.3c-0.9-0.3-1.7-0.9-2.5-1.4 c-22.1-14.4-46.2-23.2-72.4-26.4c-70.6-8.6-139.7,28.4-171.6,91.9c-15,29.9-20.7,61.5-17.1,94.8c6.4,59.3,43.8,111.1,98.1,135.7 c27.4,12.4,56.1,17.5,86,14.4c54.2-5.6,96.4-31.6,126.7-76.9c8-11.9,13.9-24.9,18.5-38.4c1.1-3.3,2.8-4.6,5-3.9 c2.2,0.7,2.8,2.8,1.6,6.1c-19.1,54-55.4,91.2-109.2,110.9c-25,9.2-50.9,11.8-77.4,8.9c-60.9-6.8-113.3-43.7-140-98.8 c-10.1-20.8-15.8-42.8-17.1-65.8c-0.1-1.8-0.3-3.6-0.3-5.3C73.8,259.6,73.8,257.8,73.8,256z"/>
	<path fill="#fff" d="M254.1,393.5c54-0.1,105.9-37,125.3-92.4c0.3-0.9,0.6-1.8,1-2.7c0.9-2.3,2.7-3.3,4.6-2.7c1.9,0.7,2.7,2.6,2,5 c-0.5,1.8-1.2,3.7-1.9,5.4c-20.2,50.2-56.6,81.7-109.9,91.9c-66.9,12.9-133.8-24.4-159.5-87.5c-8-19.6-11.5-40-10.5-61.1 c2.9-65,49.2-120.4,112.6-134.3c39.5-8.7,76.5-1.8,110.7,19.9c0.7,0.4,1.4,0.9,2,1.5c1.3,1.3,1.6,3.1,0.6,4.5 c-1.1,1.5-2.5,1.8-4.2,1.2c-0.8-0.3-1.5-0.7-2.1-1.2c-17.1-11.2-35.7-18.4-55.9-21c-39.3-5.1-74.8,4.4-105.7,29.3 c-24.6,19.7-40.4,45.2-47.5,76c-13.8,60,14,121.9,68,151.4C204.1,387.8,226.1,393.4,254.1,393.5z"/>
	<path fill="#fff" d="M448.9,106.7c-11.8-1.6-22.9,0.7-33.4,6c-12,6-21.1,15.4-28.6,26.3c-9.9,14.4-16.4,30.4-22.1,46.8 c-0.2,0.7-0.5,1.3-0.8,2.3c-0.6-0.9-1-1.5-1.5-2.1c-4.3-5.2-8.1-10.8-12.9-15.5c-15.1-14.8-33.6-17.6-52.6-7.8 c-7.2,3.8-13.3,8.9-18.9,14.7c-1.2,1.2-2.2,1.3-3.8,1c-4.8-0.9-9.7-1.8-14.6-2.2c-1.4-0.1-3.3,0.7-4.4,1.7 c-3.6,3.2-6.9,6.8-10.5,10.1c-1,1-2.5,1.6-3.8,2c-5.3,1.9-11.2,2.8-16,5.7c-6.2,3.7-12.5,5.5-19.6,4.7c-0.7-0.1-1.4,0-2.1,0 c-3.8,0.1-7.2,1.2-9.9,3.8c-1.8,1.8-3,4.2-4.8,6.1c-3.8,4.2-6.1,9.3-8.2,14.4c-6.2,15.2-8.2,30.9-4.7,47.1 c3.9,18.3,12.9,33.6,27.3,45.7c11,9.2,23.7,14.7,37.8,17.3c4.1,0.8,8.2,0.1,11.5-2.5c3.5-2.7,6.7-5.9,10.1-8.7 c0.9-0.8,2.2-1.4,3.4-1.7c8.4-1.7,16.4-4.4,23.7-8.9c0.7-0.4,1.7-0.7,2.5-0.7c4.5,0.1,9,0.4,13.6,0.5c2.3,0.1,4.7,0.3,6.5-1.6 c6.1-6.6,11.2-13.8,14.9-22c6.6-14.7,8.8-30,6.3-45.9c-1.7-11.1-5.8-21.5-11.9-31c-2.1-3.3-2.2-3.3,0.1-6.6 c0.3-0.4,0.6-0.8,0.9-1.2c0.4,0.3,0.7,0.5,1,0.8c0.9,0.8,1.8,1.7,2.6,2.6c7.1,7.6,12.5,16.3,17.2,25.5 c6.1,11.8,11.7,23.8,17.8,35.7c1.4,2.7,3.4,5.2,5.5,7.3c3,3.1,7.4,3.1,10.9,0.5c3.6-2.7,5-6.6,6-10.7c2.6-10.6,5.1-21.2,7.6-31.8 c4.8-20.7,10.2-41.2,18.5-60.8c3.7-8.7,7.9-17.2,14.4-24.2c2.3-2.4,4.8-4.1,8.3-3.3c2.4,0.5,4.2-0.5,5.4-2.4 c6.4-9.7,11.5-19.9,15.3-30.8C454.3,109.3,452.7,107.2,448.9,106.7z M184.1,234.6c2.3,31.3,13,59.4,32.3,84 C188.7,303.5,173.4,266.1,184.1,234.6z M242.3,328.3c-2.9-0.5-5.7-1.9-8.2-3.5c-7.4-4.6-13-11.1-17.9-18.2 c-11.8-16.9-19.3-35.6-23.3-55.8c-1.7-8.7-2.6-17.6-1.3-26.4c0.7-4.3,2.1-8.5,3.9-12.4c1.4-3.2,4.4-5.2,8.3-5.1c1.9,0,3.8,0,6,0 c-4.4,9.7-4.1,19.5-2.7,29.4c2.9,20.9,10.1,40.4,20.7,58.5c4.8,8.2,10.3,16,17.9,22c2.5,2,5.4,3.4,8.2,5.2 C250.8,325.6,247.6,329.3,242.3,328.3z M258.1,315.7c-3.1-0.1-5.5-1.9-7.8-3.8c-7.3-5.7-12.5-13.2-17.1-21.1 c-8.5-14.4-14.4-29.8-18-46.1c-1.9-8.6-3-17.4-1.9-26.3c0.6-5.4,3-9.6,7.4-12.6c5.5-3.8,11.4-6.7,18.2-8.4 c-0.2,1.7-0.4,3.3-0.4,4.8c-0.3,10,1.8,19.6,4.3,29.1c3.7,14.3,8.8,28.1,15,41.5c4.7,10.1,9.8,19.9,16.7,28.7 c2.2,2.9,4.8,5.4,7.4,8.3C274.3,313.4,266.6,316.1,258.1,315.7z M292.6,305.8c-3.3,0-6.1-1.1-8.5-3.4c-5.2-5.2-9.2-11.2-12.7-17.6 c-10.8-19.3-18.8-39.7-23.8-61.3c-1.7-7.5-3-15.1-2.3-23c0.2-2.1,0.7-3.9,2.2-5.4c1.8-1.8,3.6-3.5,5.2-5 c7.6,41.3,22.4,79.9,44.6,115.6C295.9,305.8,294.3,305.8,292.6,305.8z M320.1,223.9c14.2,29.5,8.8,57.1-12.2,82.6 c-1.9-2-3.7-3.7-5.1-5.6c-5.7-7.4-10.1-15.7-14.1-24c-10.9-22.5-19.9-45.7-25.8-70.1c-1.6-6.7-2.2-13.6-3.2-20.4 c-0.2-1.1,0.2-2.3,0.3-4C287.3,186.3,308.3,199.3,320.1,223.9z M442.1,122.3c-2.7,5.3-5.6,10.5-8.5,15.7c-0.6,1.1-1.4,1.6-2.8,1.5 c-3.7-0.4-6.8,0.9-9.5,3.4c-7,6.3-11.5,14.4-15.4,22.8c-7.6,16-12.6,33-17,50.1c-4.2,16.1-7.7,32.4-11.7,48.5 c-0.5,2.2-1.6,4.4-2.8,6.3c-1.2,2-2.7,2.1-4.2,0.4c-1.3-1.5-2.5-3.3-3.4-5.1c-4.9-9.9-9.5-19.8-14.5-29.7 c-5-10-10.4-19.7-17.6-28.4c-2.9-3.6-6.5-6.6-10-9.6c-2.4-2-4.2-1.6-6.3,0.7c-1.3,1.4-2.3,3-3.6,4.7c-8.7-9.9-19.1-17.3-31.5-22.2 c4.4-4.4,9-8.2,14.1-11.3c6.2-3.8,12.8-6.2,20.1-6.5c6.5-0.2,12.6,1.4,18.2,4.6c8.2,4.6,14,11.5,19.4,18.9 c2.4,3.3,4.4,6.9,6.8,10.2c0.7,0.9,2.2,1.6,3.4,1.7c1.4,0.1,2.4-1,2.9-2.5c4.2-14.1,9.4-27.7,16.2-40.7c4.2-8.1,9.2-15.6,15.3-22.5 c5.9-6.7,12.7-12,20.7-15.8c8.1-3.8,16.6-5.4,25.9-4.5C444.8,116.2,443.7,119.3,442.1,122.3z"/>
</svg>
