<svg xmlns="http://www.w3.org/2000/svg" width="512" height="512" viewBox="0 0 512 512"><path fill="#fff" d="M318.8 261.1c-15.9-2.5-31.8-5.1-47.7-7.6-5-.8-9.9-1.6-15-2.5 0-1.3 0-2.4 0-3.5.2-35.9.3-71.8.5-107.7 0-4-.8-5-4.7-5.6-3.4-.5-6.7-1.1-10.1-1.5-6.9-.9-13.8-2-20.7-2.3-7.5.1-13.8.4-20.7.7-28.1 1-56.2 2.1-84.4 3.1-4.5.2-5.7 1.8-4.9 6.3.9 4.7 1.6 9.4 2.5 14.3-.9 0-1.4 0-2 0-16.9.1-33.9.2-50.8.4-4 0-5.4 1.9-4.5 5.7.5 1.9 1 3.9 1.5 5.8 14.3 56.7 28.5 113.3 42.7 170 .6 2.2 1.7 3.4 3.8 4.2 38.5 15 77 30 115.5 45 19.5 7.6 39 15.2 58.5 22.8 4.1 1.6 5.6.9 7.1-3.2.9-2.6 1.8-5.2 2.7-7.8 3.2-9.1 6.3-18.2 9.6-27.5 1.1.4 2.4.8 3.8 1.2 2.8.8 4.6-.2 5.5-2.9 1-3 2-5.9 2.8-8.9 1.5-5.6 3.4-11.2 4.3-17 1.4-8.7 2-17.5 2.9-26.3 1.8-16.8 3.6-33.6 5.4-50.4C322.7 263.3 321.3 261.5 318.8 261.1zM121.4 141c26.3-.9 52.7-1.9 79-2.8 5.6-.2 11.1-.3 16.7-.7 8.5-.7 16.7 1.3 25 2.4 2.4.3 4.8.7 7.4 1.1 0 1 0 1.8 0 2.7-.2 34.8-.3 69.6-.4 104.4 0 1.3-.4 2-1.5 2.8-4.6 3.5-9 7.3-13.4 10.9-1.5 1.2-2.1 2.8-2 4.7.1 1.6 0 3.1 0 4.8-5.2.3-10.4-3.9-15.2 0-2.2-1.9-1-4.1-.9-6.4.2-4.1-.3-8.3-.5-12.4-.4-6.2-.8-12.4-1.2-18.6-.5-9.4-1-18.8-1.5-28.2-.2-4-1.7-5.2-5.7-5.5-9.5-.8-19-1.7-28.6-2.5-7.9-.7-15.8-1.3-23.7-2-5.5-.4-10.9-.9-16.4-1.4-.6-.1-1.5-.9-1.6-1.5-1.1-6.1-2.1-12.2-3.1-18.3-.9-5.4-1.7-10.8-2.7-16.2-.5-2.6-1.7-3.5-4.3-3.6-1.8-.1-3.7 0-5.8 0-.8-4.5-1.6-8.9-2.4-13.5C119.5 141.2 120.4 141.1 121.4 141zM283.4 289.4c-.2 4.1-.4 8-.6 11.9-.5 9.2-1.1 18.3-1.7 27.5-.2 3.9-.6 7.8-.9 11.7 0 .4-.1.8-.2 1.1-1.6 3.6-3.3 7.1-5 10.8-8.4-2.6-16.7-5.3-25.1-7.9-10.5-3.3-21.1-6.7-31.6-9.9-1.6-.5-2.3-1.1-2.4-3-.5-10.1-1.3-20.2-2-30.4-.4-5.2-.7-10.3-.9-15.5 0-.8.5-2 1.2-2.5 2-1.8 4.2-3.5 6.5-5 .8-.5 2.1-.8 3-.6C243.5 281.4 263.2 285.4 283.4 289.4zM205.6 284.4c.9 12.5 1.6 25 2.4 37.8 1.1 3.5-2.4 4.9-4.2 7.1-.3.4-1.7.1-2.4-.1-20.8-6.5-41.5-13.1-62.3-19.6-1.6-.5-3.2-1.3-4.9-1.5-3.1-.4-4.1-2.2-4.6-5.1-2.2-11.9-4.7-23.8-7.1-35.7-.2-1.1-.4-3 0-3.2 1.7-.8 3.7-1.6 5.6-1.5 2.9.2 5.8 1.1 8.7 1.7 20.5 4.4 41.1 8.8 61.6 13 1.3.3 2.9-.3 4.2-.8 1.1-.4 2-1.3 2.9-2 1.3-1 2.8-.9 3.5.2.6 1 .7 2.6-.8 3.5C206.1 279.8 205.4 281.8 205.6 284.4zM205.8 213.6c.3 5.6.6 11.2 1 16.9.6 10 1.1 20 1.8 30 .1 2.1-.3 3.4-2.2 4.8-7 5.2-7 5.1-15.6 3.3-20.7-4.4-41.4-8.7-62.1-13.1-2.5-.5-4.9-1-7.4-1.7-.7-.2-1.6-1-1.8-1.7-3.3-16.3-6.6-32.6-9.9-49.2 3.4-.6 6.7-1.5 10-1.6 5.7-.1 11.4.1 17 .5 9.8.7 19.5 1.6 29.3 2.5 11.2 1 22.3 1.9 33.5 2.9 2 .2 4.5-.1 5.7 1C206.1 209 205.6 211.6 205.8 213.6zM292 343.1c-.7 8.9-1.4 17.7-2.1 26.6-.1 1-.2 1.9-.5 2.8-3.2 9.3-6.5 18.6-9.8 27.9-.1.3-.3.5-.5 1-5.9-2.3-11.9-4.6-17.8-6.9C210.7 374.7 160 355 109.3 335.2c-1.5-.6-2.2-1.3-2.6-2.9-14.1-56.2-28.3-112.5-42.4-168.7-.1-.4-.1-.7-.3-1.5 20.2 0 40 0 60.2 0 1.7 10.4 3.4 20.7 5.1 31.2-.6.1-1 .2-1.4.2-6.5-1.1-12.7 1.3-19.1 2-1.4.2-2.8.4-4.1.8-2.2.6-3.3 2.3-2.9 4.5 3.7 18.3 7.4 36.7 11.1 55 .3 1.2 1.1 2.4 1.6 3.6.1.3.4.5.4.7-1.3 5.2 1.1 10 2 15 2.1 11.5 4.6 22.9 6.9 34.3.4 2.2 1.5 3.3 3.6 4 25.1 7.9 50.1 15.8 75.1 23.8 2.7.8 4.5 0 6.5-2.4-.3 3.9 1.9 5.1 4.7 6 20.4 6.4 40.7 12.8 61.1 19.2 3 .9 4.8.1 6.1-2.7 1.6-3.6 3.5-7 4.9-10.7 1.1-2.9 1.8-6 2.7-9C293 338.6 292.5 337.7 292 343.1zM313.4 282.9c-1.7 16.1-3.7 32.1-5.1 48.2-1 11.2-3.3 22.1-7.4 32.5-2.2-.2-3.3-.9-3-3.6.8-6.8 1.2-13.7 1.7-20.6.1-1 .1-1.9.1-2.9 0-2.2-.9-3.6-3.1-4.2-2.8-.8-5.5-1.6-8.4-2.4.3-5.9.6-11.7 1-17.5.4-6.1.8-12.1 1.2-18.2.1-1.8.2-3.7.4-5.5.3-3.9-.7-5.4-4.4-6.1-9.8-2-19.6-3.9-29.4-5.9-5.3-1.1-10.6-2.1-15.9-3.1-1.2-.2-1.4-.8-1.6-1.9-.4-3.2.2-5.7 3.2-7.5 2.4-1.5 4.6-3.5 6.7-5.4 1.1-1 2.3-1.2 3.6-1 20.2 3.3 40.4 6.5 60.6 9.8.4.1.7.2 1.2.4C314.5 272.9 314 277.9 313.4 282.9zM453.3 215c-3.9-2.5-7.7-5-11.6-7.4-.9-.5-1.9-1-2.8-1.2-14.3-3.1-28.5-6.1-42.8-9.2-18.5-4-37-7.9-55.4-11.8-3.1-.7-4.5.1-5.7 3.1-5.8 14.5-11.7 29-17.3 43.6-4.4 11.4-4.4 7 0 18.5 1.1 2.9 2.9 4.2 5.9 4.8 25.2 4.8 50.4 9.7 75.6 14.5 6 1.2 11.9 2.3 17.7 3.4 2.1 0 3.3-.8 4.4-2.4 4.7-6.9 9.4-13.7 14.1-20.5 6.5-9.5 13-18.9 19.5-28.4C456.8 219 456.4 217 453.3 215zM440.1 230.8c-7.7 11.2-15.4 22.3-23 33.5-.8 1.2-1.5 1.6-3 1.3-29.4-5.7-58.8-11.3-88.2-17.1-.8-.2-1.7-1-2.2-1.8-2.3-3.6-2-7-.3-11 5.8-13.7 11.1-27.6 16.6-41.4.2-.5.5-1.1.8-1.8 12.5 2.7 24.9 5.3 37.3 8 19.3 4.1 38.5 8.3 57.8 12.4.6.1 1.3.3 1.9.6 3.2 2 6.4 4 9.8 6.2C445.1 223.6 442.6 227.2 440.1 230.8z"/><path fill="#fff" d="M365.2,120.3c0-1.6-0.5-3.5-1.4-4.7c-2.7-3.8-5.8-7.3-8.7-11c-1.9-2.3-3.8-2.6-6.4-1.1c-25.2,15.1-50.4,30.1-75.6,45.2 c-1.9,1.1-2.8,2.6-3,4.6c-1.2,12.9-2.4,25.8-3.6,38.7c-0.2,2.2,0.6,3.9,2.6,5c3,1.7,6.1,3.4,9,5.3c2.1,1.3,4.1,1.3,6.3,0.4 c26.1-10.4,52.2-20.7,78.4-31.1c3.1-1.2,3.6-2.2,3.6-5.6C366.3,158.6,365.2,127.9,365.2,120.3z M357.3,166.3 c-24.7,9.7-49.4,19.5-74.1,29.2c-0.8,0.3-2,0.2-2.8-0.2c-2.2-1.1-4.4-2.5-6.7-3.8c0.6-6.5,1.1-13,1.7-19.4c0.5-5.3,1-10.6,1.6-15.9 c0.1-0.8,0.8-1.9,1.5-2.4c23.7-14.3,47.5-28.4,71.2-42.6c0.2-0.1,0.5-0.3,1-0.5c2.3,2.9,4.6,5.7,6.8,8.5c0.4,0.6,0.6,1.5,0.6,2.2 c0.4,14,0.7,28,1.1,42C359.2,164.9,358.8,165.7,357.3,166.3z"/></svg>