<svg xmlns="http://www.w3.org/2000/svg" width="512" height="512" viewBox="0 0 512 512"><path fill="#fff" d="M465.8,124.5c-1.7-7.5-4.5-14.6-9.2-20.9c-5-6.7-11.4-11.4-19.1-14.1c-8.1-2.8-16.6-3.6-25.2-2.7c-12,1.3-23.6,4.8-34.6,9.6	c-18,7.8-34.6,18-50.2,29.9c-3.5,2.7-7.1,5.3-10.9,8c0-0.8,0-1.1,0-1.5c1.4-10.6,2.8-21.2,4.3-31.8c0.6-4.6,0.2-5.3-4.4-6.3	c-0.5-0.1-1-0.3-1.5-0.4c-3.4-0.7-6.6-0.9-10.1,0.2c-11.8,3.7-23.7,7.2-35.5,10.7c-18.6,5.6-37.2,11.1-55.8,16.7	c-2.9,0.9-4.3,2.6-4.3,5.7c0.1,2.6,0.3,5.3,0.6,7.9c0.5,5.2,1.1,10.4,1.6,15.6c0.5,5,1,10.1,1.5,15.1c0.5,5.3,1.1,10.5,1.7,15.8	c0.5,5.2,1.1,10.4,1.6,15.6c0.5,5,1.1,10.1,1.6,15.1c0.5,5.1,1,10.2,1.6,15.3c0.5,5.2,1.1,10.4,1.6,15.6c0.5,5.1,1,10.2,1.6,15.3	c0.7,6.5,1.4,12.9,2.1,19.4c0.5,5,0.8,10.1,1.6,15.1c0.2,1.4,1.5,2.8,2.6,4c1,1,2.4,1.6,3.9,2.6c-1.1,0.2-1.6,0.4-2.2,0.5	c-30.8,5.7-60.4,15.2-88.5,28.9c-12.2,5.9-24.3,12.3-35.8,19.4c-18.9,11.6-36.3,25.1-52.4,40.4c-2.9,2.7-5.4,5.7-6.9,9.5	c-3.1,7.6,0.3,17.5,7.5,21.6c8.7,5,18.9,3.1,26-3.1c5.6-4.9,11.2-9.8,17.1-14.4c21.7-17.2,45.6-31,70.8-42.4	c18.8-8.5,38.2-15.4,58.1-20.7c22.7-6.1,45.7-9.9,69.2-10.6c5.8-0.2,11.7,0,17.8,0c-0.3,1.3-0.5,2-0.7,2.7	c-1.9,7.2-3.9,14.4-5.8,21.5c-5.3,19.4-10.5,38.8-15.8,58.2c-0.6,2.1-0.4,4,1.3,5.4c3.3,2.7,6.6,5.4,10,7.9c1.8,1.4,4.1,0.9,5.2-0.8	c1.2-1.7,2.3-3.5,3.4-5.4c15.1-26.2,30.2-52.4,45.2-78.6c5.3-9.2,11-18.3,15.7-27.7c6.8-13.6,12.9-27.5,19.3-41.3	c16.6-35.7,33.1-71.3,49.7-107c3.7-8,7.3-16,11-24c2-4.3-0.6-6.5-4.2-7c-4.1-0.6-8.3-1.2-12.4-2c-2.9-0.6-5.1,0.1-7.1,2.3	c-6.4,7-13,13.9-19.5,20.8c-21.3,22.6-42.6,45.3-64,67.9c-2.5,2.7-4,5.6-4.9,9c-1.2,5-2.7,10-4.2,15.5c-0.3-1.1-0.5-1.7-0.6-2.3	c-2-10.7-5-21.1-8.9-31.2c-3.8-9.8-8.9-18.9-15.9-26.9c-0.6-0.7-0.7-2.1-0.6-3.1c0.5-4.2,1.3-8.4,1.6-12.7c0.3-4,1.7-7,5-9.8	c12.4-10.6,25-21,38.9-29.7c9-5.7,18.2-11,27.7-15.8c5.8-2.9,12.1-5,18.3-6.9c7.4-2.3,14.9-3.4,22.7-2.5c7.4,0.8,13.7,3.7,18.7,9.2	c3.8,4.1,6,9.1,7.9,14.2c1.6,4.1,4.5,5.6,8.9,4.3C463.8,132.4,466.7,128.3,465.8,124.5z M223.9,195.4c-0.1,0-0.2,0-0.3,0	c-2.2-21.4-4.4-42.8-6.6-64.3c0.2-0.1,0.5-0.2,0.7-0.3c0.4,0.6,1.1,1.1,1.1,1.8c0.5,5.5,0.9,11,1.4,16.4c0.6,6.5,1.2,12.9,1.8,19.4	c0.4,4.7,0.6,9.3,1,14c0.3,3.9,0.6,7.8,0.9,11.7C224,194.5,223.9,195,223.9,195.4z M226.4,130.9c28.9-9.2,57.7-18.3,86.8-27.5	c-0.6,4.8-1.2,9.3-1.8,13.9c-1,7.5-2,14.9-3.1,22.3c-0.1,0.9-0.6,1.8-1.3,2.4c-8.4,7.7-16.9,15.2-25.3,23c-3.3,3.1-6.3,6.6-9.4,9.9	c-0.4,0.4-0.8,1-1.3,1.3c-4.4,2.5-6,9.3-4.2,14.4c1.5,4.2,4.3,6.1,9.6,5.1c5.7-1.1,9.2,1.6,12.4,5.4c4,4.8,6.6,10.5,8.7,16.4	c0.4,1.2,0,2.7-0.2,4c-0.7,5.5-1.4,11-2.2,16.5c-0.1,0.7-0.5,1.6-1.1,2.1c-17.9,16.3-35.9,32.6-53.8,48.9c-0.2,0.2-0.5,0.3-1,0.7	C235,236.7,230.7,183.9,226.4,130.9z M299.6,245.1c1.7-1.5,2.5-3.2,2.7-5.3c0.1-1.2,0.3-2.4,0.5-4c3.3,9.8,8.1,52.4,6.7,60.5	c-22.9-2.5-45.6-1.3-69,2.3c3-2.8,5.6-5.2,8.1-7.5c11-10,22-20,33.1-30C287.8,255.8,293.7,250.4,299.6,245.1z M426.8,177.9	c-20.2,43.4-40.1,86.8-60.6,130.1c-5,10.6-11.5,20.5-17.3,30.7c-7.5,13.2-15.1,26.3-22.7,39.5c-0.3,0.6-0.7,1.1-1.4,1.6	c0.1-0.5,0.2-0.9,0.3-1.4c16.8-45.4,33.5-90.8,50.5-136.1c1.2-3.3,3.8-6.1,6-9c16.1-21.3,32.2-42.6,48.4-63.9	c0.1-0.1,0.2-0.2,0.4-0.3c0.1,0,0.3,0.1,0.4,0.1C429.4,172.2,428.1,175,426.8,177.9z M358.2,218.9c3.8-4,7.5-8.1,11.3-12.1	c3.5-3.8,7.1-7.5,10.7-11.2c3.9-4.2,7.8-8.4,11.8-12.6c3.3-3.5,6.6-6.9,9.9-10.4c4-4.3,8-8.7,12.1-13c2.6-2.8,5.3-5.7,7.9-8.5	c3.7-3.9,7.5-7.7,11.3-11.6c0.5-0.5,1.4-1.1,2-1c2.4,0.2,4.8,0.7,7.7,1.2c-4.4,5.8-8.5,11.3-12.6,16.7	c-15.8,20.9-31.6,41.7-47.4,62.6c-3.3,4.4-6.6,8.7-9.9,13c-0.4,0.5-1.4,1.2-1.9,1.1c-6.4-2.2-12.8-4.6-19.4-7	C353.9,223.6,356.1,221.2,358.2,218.9z M345.4,240c0.6-2.3,1.3-4.7,2-7.3c6.9,2.5,13.7,5,20.7,7.6c-21.7,58.6-43.3,116.9-64.9,175.2	c-4.5-2.8-4.5-2.8-3.2-7.8c8.9-33,17.8-66.1,26.7-99.1C333,285.8,339.2,262.9,345.4,240z M458.3,126.4c-0.3,0-0.5,0-0.8,0	c-1.2-2.7-2.3-5.6-3.7-8.2c-3.9-7.5-9.6-13.2-17.4-16.5c-9.8-4.2-19.9-4.1-30.2-2c-17.6,3.6-33.2,11.8-48.4,20.9	c-11.2,6.7-21.6,14.6-31.8,22.7c-6.3,5-12.4,10.3-18.5,15.7c-5.7,5-11.2,10.2-16.8,15.4c-3.4,3.2-2.7,6.3,1.6,7.9	c6.4,2.4,11.4,6.7,15.5,12c6,7.7,10.2,16.4,13.5,25.6c4.8,13.5,7.9,27.4,9.8,41.5c0.3,2-0.5,4.2-1,6.2c-3.8,14.4-7.8,28.7-11.7,43	c-0.9,3.2-1.9,6.4-2.6,9.7c-0.3,1.3-0.9,1.5-2.1,1.4c-4.3-0.2-8.5-0.5-12.8-0.3c-9.3,0.5-18.5,1-27.7,2c-9,1-18,2.3-27,4	c-7.6,1.4-15.2,3.2-22.5,5.5c-13.1,4-26.3,8.1-39.1,12.9c-22.9,8.6-44.9,19.4-65.4,32.9c-11.4,7.6-22.4,15.9-33.4,24.1	c-3.8,2.8-7.1,6.2-10.6,9.3c-4.2,3.7-11,4.7-15.5,2.6c-6.8-3.2-8.9-11.8-2.9-17.9c5.1-5.1,10.3-10.1,15.9-14.6	c8.1-6.5,16.3-12.9,24.8-18.9c13.7-9.6,28.1-17.9,43.1-25.3c23.6-11.6,48.2-20.5,73.7-26.8c14.5-3.6,29.1-6.1,43.9-7.5	c8.8-0.8,17.7-1.3,26.6-1.2c8.9,0.1,17.9,0.9,26.8,1.5c3.8,0.3,5.8-1.4,5.7-5.3c-0.5-22.6-2.5-45-7.7-67	c-2.5-10.5-5.5-20.8-11.1-30.1c-2.4-4-5.2-7.6-9.1-10.4c-4-2.9-8.5-3.7-13.2-2.7c-2,0.4-2.7-0.5-2.4-2.1c0.2-1.4,1-2.8,1.8-3.9	c0.9-1.2,2.2-2,3.2-3.2c8.1-9.5,17.4-17.8,26.9-25.9c4.4-3.8,8.7-7.8,13.2-11.5c4.1-3.3,8.5-6.4,12.7-9.5c2.1-1.5,4.1-3.1,6.2-4.6	c12.4-8.6,25.1-16.9,39.1-22.8c7-2.9,14.1-5.6,21.2-8.2c2.3-0.8,4.7-1,7.1-1.5c6.3-1.4,12.7-1.9,19-1.3c13.3,1.2,23.9,7.2,30.1,19.4	c1.7,3.4,2.8,7,4.1,10.6C458.5,124.7,458.3,125.6,458.3,126.4z M303.9,172.8c-0.2,2.1-0.5,4.2-0.8,6.8c-1.6-1.1-2.7-1.8-3.7-2.5	c1.4-1.6,2.7-3,4-4.5C303.5,172.6,303.7,172.7,303.9,172.8z"/></svg>