<svg xmlns="http://www.w3.org/2000/svg" width="512" height="512" viewBox="0 0 512 512"><path fill="#fff" d="M117.4,74.7c-6.6-5.1-14-9.5-31.6-7.8C74.1,68,66.6,80,65,87.9c-1.6,8-1.8,13.7,2.8,24.7c2.4,5.9,9.2,13.2,15.6,19.5	c2,2,6,4.8,8.5,6.3c5.5,3.3,10,6.2,16.8,6c0.2,0,0.4,0,0.6,0.1c1.2,0.6,2.7,0.9,3.6,1.8c13.7,13.6,27.4,27.2,41.1,40.8	c1.5,1.5,3.1,3,3.2,5.3c0,0.7,0.5,1.4,1,2c2.3,2.8,4.5,5.8,7.1,8.4c5.3,5.5,10.9,10.7,16.1,16.3c3.3,3.6,7.1,5.8,12,6.3	c0.4,0,1,0.3,1.2,0.6c0.9,2.4,1.7,4.8,2.6,7.3c-0.9,0-1.4,0-2,0c-12.3-0.7-24.5-1.5-36.8-2.2c-9.9-0.6-19.8-1.2-29.7-1.8	c-2.7-0.2-4.1,0.8-4.5,2.9c-0.4,1.9,0.4,3.4,2.6,4.4c9.9,4.8,19.7,9.5,29.6,14.2c6.4,3.1,12.7,6.2,19.5,9.4	c-1.1,0.4-1.7,0.6-2.3,0.8c-3.6,1-7.2,2.1-10.8,3c-2,0.5-3.2,1.6-3.2,3.5c0,1.8,1.1,3,2.9,3.6c12.6,4.4,25.1,8.8,37.7,13.2	c4.2,1.5,8.5,3,12.9,4.6c-0.5,0.4-0.7,0.7-1,0.8c-20.4,15.9-40.8,31.7-61.2,47.6c-4.3,3.3-8.5,6.6-12.8,10c-1.6,1.3-1.8,3-1,4.7	c0.9,1.8,2.5,2,4.3,1.5c0.6-0.2,1.2-0.4,1.8-0.6c24.8-9.5,49.6-18.9,74.4-28.4c3.2-1.2,6.4-2.4,9.9-3.7c-0.2,0.9-0.2,1.4-0.4,1.9	c-4.1,16.8-8.1,33.5-12.2,50.3c-0.5,1.9-0.7,3.6,1.3,4.8c1.7,1,3.4,0.7,5.2-1c3.1-2.8,6.2-5.6,9.2-8.4c1.6-1.5,3.3-2.9,5.2-4.6	c0,0.6,0,0.9,0,1.1c-1.3,14.5-2.6,29-3.8,43.5c-1,10.9-1.9,21.7-2.8,32.6c-0.2,2.4,0.6,3.7,2.7,4.2c2.3,0.5,3.5-0.3,4.9-3.3	c5.1-11.1,10.1-22.2,15.2-33.3c7.3-16,14.6-31.9,21.9-47.9c3.1-6.7,6.2-13.4,9.4-20.5c1.7,2.3,3.1,4.4,4.6,6.4	c0.6,0.8,1.5,1.5,2.4,1.8c2.5,0.9,3.9-0.6,4.9-2.9c0.5,0.5,0.8,0.9,1.1,1.3c7.6,8.4,15.1,16.8,22.7,25.2	c6.9,7.7,13.8,15.4,20.7,23.1c2.5,2.8,5,5.5,7.6,8.3c1.2,1.3,2.9,1.7,4.3,0.8c0.9-0.6,1.5-2,1.8-3.2c0.2-0.6-0.3-1.5-0.5-2.2	c-3.3-11.9-6.5-23.8-9.8-35.7c-0.8-2.9-1.6-5.9-2.5-9.3c7.2,5,14,9.6,20.8,14.3c13.1,9,26.3,18,39.5,27c4,2.7,8,5.5,12,8.2	c1.9,1.3,3.7,1.2,4.9-0.1c1.2-1.3,1.3-3.4,0.1-5.2c-0.4-0.6-0.9-1.2-1.4-1.8c-9.9-12.5-19.8-25-29.7-37.5	c-12.5-15.8-25.1-31.6-37.6-47.4c-2.8-3.6-5.6-7.1-8.5-10.8c0.4-0.1,0.6-0.2,0.8-0.3c26.3-4.6,52.6-9.2,78.9-13.7	c8.1-1.4,16.3-2.8,24.4-4.2c2.5-0.4,3.7-2.4,3-4.7c-0.6-1.8-2-2.3-3.6-2.7c-25-6.4-50.1-12.9-75.1-19.3c-5.5-1.4-11.1-2.9-17-4.4	c1.3-1.2,2.3-2.1,3.3-3c6.4-5.9,12.8-11.7,19.1-17.6c2.3-2.2,1.5-5.3-1.4-6.2c-0.3-0.1-0.5-0.2-0.8-0.3c1.4-1.5,2.9-2.7,4-4.2	c0.7-1,1.3-2.4,1.2-3.5c-0.3-2.8-2.3-3.5-5.7-2.5c-10.1,3-20.2,6-30.3,9.1c-2.8,0.8-5.6,1.7-8.7,2.6c0.2-0.7,0.2-1,0.3-1.3	c6.7-22.9,13.4-45.9,20.2-68.8c1.6-5.5,3.3-11,4.7-16.6c0.7-2.7-1.6-4.9-4.3-4c-1.3,0.4-2.5,1.4-3.5,2.5	c-11.7,12.5-23.3,25.1-34.9,37.7c-8.2,8.9-16.4,17.7-24.6,26.6c-1.4,1.6-2.9,3.1-4.5,4.7c-0.3-0.7-0.5-1.2-0.7-1.6	c-6.9-17.7-13.8-35.4-20.6-53.1c-4.6-11.8-9.2-23.7-13.8-35.5c-0.9-2.3-2.6-3.1-4.8-2.4c-2.2,0.7-2.4,2.5-2.3,4.3	c0.3,21.6,0.7,43.2,1,64.7c0,0.4-0.1,0.9-0.2,1.9c-0.8-1-1.3-1.6-1.8-2.2c-9-9.1-18-18.1-26.9-27.2c-2.2-2.2-4.1-2.7-5.8-1.7	c-1.6,1-1.8,2.4-0.9,5.6c1,3.4,1.9,6.9,3,10.9c-3.9-3.4-7.2-6.6-10.7-9.5c-3.4-2.7-6.4-6.2-11.4-6.4c-0.9,0-1.8-1.1-2.6-1.9	c-2.4-2.2-4.8-4.4-7.2-6.6c-12.2-11.1-24.5-22.1-36.7-33.2c-0.8-0.7-1.4-1.9-1.5-3c-0.5-4.5-5.5-11.9-7.8-16	C128.7,83.9,123.5,79.4,117.4,74.7z M254.2,204c0.6-0.1,1.3,0,1.7,0.3c2.8,2.3,5.5,4.6,8.5,7.2c-6.9,1.6-11.9,5.7-16.9,9.6	c-7.8,6.2-14.7,13.4-20.5,21.4c-3.9,5.4-8.1,10.8-9.4,17.6c-0.1,0.4-0.3,0.8-0.6,1.5c-2.5-2.9-4.9-5.5-7.3-8.2	c-0.3-0.3-0.7-0.9-0.6-1.3c0.4-2.4,0.6-5,1.6-7.2c3.7-8.5,9-16,15.3-22.6c5.8-6,12.1-11.5,19.7-15.5	C248.4,205.5,251.2,204.5,254.2,204z M307.9,271.3c-6.7,7-13.4,14-20.1,21.1c-3.1,3.3-6.2,6.5-9.4,9.7c-0.4,0.4-1.5,0.7-2,0.4	c-9.8-4.6-19.6-9.4-29.4-14.1c-0.1-0.1-0.2-0.2-0.3-0.3c1-4.2,8.3-13.6,17-23.2c0.1-0.1,0.2-0.2,0.3-0.3c0.7-0.7,1.4-1.5,2.1-2.2	c0.4-0.4,0.7-0.8,1.1-1.1c0.8-0.8,1.5-1.6,2.3-2.4c0.6-0.6,1.2-1.2,1.7-1.8c0,0,0,0,0,0c0.3-0.3,0.7-0.7,1-1	c0.6-0.6,1.2-1.2,1.8-1.7c2.8-2.7,5.6-5.3,8.2-7.5c4.3-3.6,7.9-6.3,10.4-7.2c1.7,3.1,3.5,6.3,5.3,9.5c3.5,6.3,6.9,12.6,10.4,18.9	C309.1,269.4,308.9,270.3,307.9,271.3z M315.3,273.7c2,2.8,3.9,5.3,5.5,7.9c1.9,3,3.3,6.2,5.2,9.2c1,1.6,0.9,2.9-0.3,4.2	c-4.2,4.7-8.1,9.6-12.5,14.2c-3.2,3.4-7,6.4-10.4,9.5c-0.8,0.8-1.5,0.8-2.6,0.3c-4.1-2.1-8.4-3.9-12.5-6.1c-2-1.1-3.8-2.7-5.7-4.2	C293.1,297.1,304,285.6,315.3,273.7z M240.5,284.8c-2.7-2.5-5.4-5.1-8.1-7.7c-0.9-0.9-0.8-1.8-0.4-3c2.3-7.4,7-13.5,11.7-19.4	c5.5-7,11.8-13.3,18.5-19c4.8-4.1,9.7-8.3,16-10.1c0.6-0.2,1.5-0.3,1.9,0c3.1,2.5,6.1,5.2,9.1,7.9	C269.5,247.2,254.4,263.1,240.5,284.8z M226.8,267.7c-2.7-1.6-3.4-3.1-2.5-6.3c1.6-5.7,5-10.3,8.4-14.9c5.3-7.1,11.3-13.6,18.2-19	c4.3-3.3,8.9-6.3,13.7-8.8c3-1.6,4-0.8,6.3,2.2C252.5,233,237.7,248.5,226.8,267.7z M245,195.2c-5.6-1.6-11.1-3.1-16.6-4.7	c-0.5-0.1-1.1-0.8-1.2-1.3c-0.6-4.3-2.6-7.8-5.8-10.6c-0.4-0.4-0.7-1-0.9-1.6c-0.8-2.9-1.6-5.9-2.3-8.4	C227,177.2,236,186.2,245,195.2z M71.5,88.7c1.3-4.3,4.1-11.5,11-14.2c6.6-2.5,12.1-2.4,18.4-0.7c9.9,2.8,17.2,8.8,22.9,15.1	c2.9,3.2,7.7,11.2,9.6,14.6c-5.1-4.7-10.9-7.6-17.8-7.4c-6,0.1-11.6,2.3-15.6,6.8c-6.9,7.9-10.5,20.2,2.4,34.1	c-4.4-2.4-9.1-5.3-13.3-8c-6-4.6-7.6-6.1-13.3-14.2C71.4,108.5,69.3,95.9,71.5,88.7z M156.9,180.9c-0.9-0.9-1.5-1.4-2-1.9	c-12.8-12.7-25.6-25.4-38.3-38.2c-4.2-4.2-8.2-8.4-12.2-12.8c-3.1-3.4-3.9-7.6-3.2-12.1c0.9-5.7,4.3-9.6,9.4-11.7	c4.7-1.9,9.8-1.8,13.9,1.6c5.8,4.7,11.5,9.6,17,14.6c12.7,11.4,25.4,23,38.1,34.5c0.2,0.2,0.5,0.3,0.8,0.4c-6.3,1.8-11,5.6-15,9.9	C161.3,169.4,157.7,174.3,156.9,180.9z M181.6,209.8c-0.2,0.1-0.4,0.2-0.6,0.3c-5.5-5.9-11-11.7-16.4-17.6c-2.3-2.6-2.1-5.9-1.5-9	c0.9-5.4,3.9-9.8,7.4-13.7c3.9-4.2,8.8-7.5,14.6-8.5c2.6-0.4,5.6-0.4,8,1.7c5.8,5.1,11.7,10.1,18.1,15.6	c-7.7,2.4-13.8,6.7-18.9,12.1C187.2,196.1,183.4,202.4,181.6,209.8z M194.2,218.8c-3.7,0.1-6.3-1.3-5.8-6c0.4-4.7,2.4-8.7,5.1-12.4	c4.5-6.4,10.1-11.6,17.6-14.3c1.8-0.7,3.9-0.8,5.9-0.8c1.8,0,3.2,2.4,3.6,5.2c0.5,4.3,1.3,5.2,5.5,6.4c5,1.4,10.1,2.9,15.5,4.4	c-15.4,9.3-27.3,21.6-35.7,37.9c-2-5.7-3.8-10.9-5.7-16.2C199.2,220.3,197.1,218.8,194.2,218.8z M399.3,385.8	c-0.1,0.1-0.2,0.2-0.2,0.3c-3-2-6.1-4.1-9.1-6.1c-12.7-8.7-25.4-17.4-38.1-26.1c-4.6-3.2-9.3-6.3-13.9-9.5c-1.5-1-3.1-2.1-4.9-0.8	c-1.8,1.3-1.6,3.2-1,5.1c3.6,13.1,7.2,26.2,10.8,39.3c0.1,0.3,0.1,0.5,0.2,0.8c-0.1,0.1-0.2,0.1-0.3,0.2c-3.3-3.6-6.6-7.2-9.9-10.9	c-6.9-7.7-13.8-15.4-20.7-23c-5.4-6-10.8-12-16.2-17.9c-2.7-2.9-4.4-2.9-7.2-0.1c-1-1.4-2-2.8-3-4.2c-2.3-3.1-5.3-2.7-6.9,0.7	c-13.4,29.3-26.9,58.6-40.3,88c-0.4,0.9-0.8,1.7-1.5,2.5c0.6-6.7,1.2-13.5,1.8-20.2c1-11.9,2.1-23.8,3.1-35.7	c0.3-3.6,0.6-7.2,0.9-10.8c0.1-1.8,0-3.5-1.9-4.5c-1.8-0.9-3.2,0.1-4.5,1.3c-4.3,3.8-8.5,7.7-13.3,12c0.9-4,1.7-7.4,2.5-10.8	c3.1-12.7,6.1-25.3,9.2-38c0.4-1.5,0.6-3.2-0.8-3.9c-1.2-0.6-3-0.9-4.2-0.5c-10.5,3.8-20.9,7.8-31.3,11.8	c-12.7,4.8-25.4,9.7-38.1,14.5c-0.4,0.1-0.8,0.2-1.3,0.1c4-3.1,8-6.2,12-9.3c16.5-12.8,33-25.6,49.4-38.4c1.4-1.1,2.5-2.2,2.1-4.2	c-0.3-1.9-1.7-2.5-3.3-3c-14.9-5.2-29.7-10.4-44.6-15.6c-0.5-0.2-0.9-0.3-1.8-0.7c3.9-1.1,7.3-2.1,10.7-3c0.6-0.2,1.2-0.4,1.8-0.5	c1.5-0.4,2.4-1.4,2.6-2.9c0.2-1.6-0.5-2.8-2-3.5c-3-1.5-6.1-3-9.2-4.5c-10.9-5.3-21.9-10.5-32.8-15.8c-0.4-0.2-0.8-0.5-1.6-0.9	c7.5,0.4,14.7,0.8,21.8,1.3c10.9,0.6,21.7,1.3,32.6,1.9c1.4,0.1,2.3,0.4,2.7,1.9c0.6,2.1,1.5,4,2,6.1c0.4,1.3,0.3,2.7,0.6,4	c0.3,1.4,0.3,3,1.2,4c4.4,5.1,9,10,13.5,14.9c0.6,0.6,1.5,1,2.4,1.1c3,0.3,4.3,2.2,5.3,4.8c0.7,2,2,3.9,3.4,5.4	c3.2,3.5,6.7,6.9,10,10.3c1.3,1.3,2.6,2.1,4.6,1.7c0.5-0.1,1.2,0.2,1.8,0.4c9.6,4.6,19.2,9.2,28.8,13.9c0.7,0.4,1.2,1.3,1.7,2	c0.5,0.7,0.8,1.7,1.4,2.2c3.8,3.4,8,6.4,12.7,8.4c3.2,1.4,6.3,2.9,9.4,4.5c2.7,1.4,5.2,1.2,7.4-0.8c5.7-5.1,11.3-10.2,16.7-15.6	c3.1-3.1,5.7-6.6,8.5-9.8C353.8,328.4,376.5,357.1,399.3,385.8z M334.7,295c-0.7-2.3-1.2-4.4-2.1-6.3c-2-4-4-8-6.4-11.6	c-2.2-3.3-5-6.3-7.5-9.3c-0.3-0.3-0.7-0.7-1-0.7c-2.5,0-3.1-2-4-3.7c-4.7-8.6-9.5-17.2-14.2-25.9c-0.3-0.5-0.7-1.2-0.6-1.7	c0.4-2.5-1-4-2.7-5.5c-4.2-3.6-8.3-7.3-12.6-10.8c-1.1-0.9-2.9-0.8-4.1-1.6c-1.4-0.9-2.7-2.2-3.7-3.5c-0.9-1.1-1-2.8-2-3.7	c-4.7-4.3-9.5-8.5-14.5-12.5c-1.1-0.9-2.9-0.9-4.3-1.1c-1.9-0.3-3.8-0.4-5.9-0.8c2.7-1.4,2.5-3.8,2.5-6c-0.3-18.4-0.5-36.8-0.5-55.3	c1,2.6,2,5.1,3,7.7c9.1,23.5,18.2,46.9,27.4,70.4c1.3,3.3,4,3.9,6.4,1.3c9.9-10.6,19.7-21.2,29.6-31.8c6-6.5,12-12.9,17.9-19.4	c3.5-3.8,7.1-7.6,10.6-11.5c0.5-0.5,0.8-1.1,1.1-1.7c0.2,0.1,0.4,0.3,0.6,0.4c-1.4,4.6-2.7,9.3-4.1,13.9	c-6.3,21.5-12.7,43.1-18.9,64.7c-0.3,1.1-0.1,3.1,0.7,3.7c1,0.8,2.9,1.1,4.2,0.8c7-1.9,14-4.1,20.9-6.2c3.8-1.2,7.7-2.3,11.7-3.5	c-1.3,1.8-2.7,3.2-3.5,5c-0.8,1.7,0.6,3.1,3.6,4c-3.6,3.3-7.2,6.6-10.7,9.9c-2.5,2.3-5.1,4.7-7.7,7c-1.2,1.1-2.3,2.3-1.9,4.1	c0.4,1.9,2,2.3,3.6,2.7c14.2,3.7,28.3,7.3,42.5,10.9c13.6,3.5,27.2,7,40.9,11C397.2,284.1,365.6,289.6,334.7,295z"/></svg>