<svg xmlns="http://www.w3.org/2000/svg" width="512" height="512" viewBox="0 0 512 512"><path fill="#fff" d="M166.4,337c-1.3,0-2.1,0-3,0c-3.9-0.2-5.6-3.1-3.7-6.6c1.4-2.7,3.1-5.3,4.6-8c0.3-0.4,0.5-0.9,0.8-1.5 c-5.4-2.2-4.7-6.9-4.2-11.2c0.6-4.5,1.9-9,2.8-13.5c0.2-0.9-0.2-1.9-0.4-2.8c-0.5-1.9-1.2-3.7-1.4-5.6c-0.5-3.8-0.6-7.7-1.1-11.6 c-0.1-1-0.8-2.3-1.7-2.9c-13.5-9.8-27-19.5-40.5-29.2c-1.5-1-2.4-2.2-2.1-4.1c0.3-2,1.7-2.7,3.6-3.2c11.2-2.6,22.3-5.3,33.5-8 c0.3-0.1,0.5-0.1,1.1-0.3c-3-3.9-5.8-7.6-8.7-11.4c-3.6-4.7-7.2-9.3-10.8-14c-0.8-1.1-1.5-2.5-1.5-3.8c0-2.2,1.8-3.3,4.7-3.2 c6.4,0.2,12.8,0.5,19.2,0.8c9.5,0.4,18.9,0.8,28.7,1.2c-0.3-0.7-0.6-1.3-0.9-1.8c-9-14.2-17.8-28.6-27.2-42.6 c-7.5-11.1-15.8-21.7-25.7-30.9c-5.2-4.8-10.7-9.2-17.7-11c-1.9-0.5-4-0.3-5.9,0c-9.7,1.7-16.3,7.9-21.6,15.8 c-4,5.9-9.6,6.2-14.7,3.9c-6.5-3-9.6-9-8.4-15.1c1.9-9.4,4.7-18.5,8.9-27.1c1.6-3.2,4-6,6.2-9c4-5.6,8.5-10.6,14.8-13.8 c6.7-3.5,13.8-5.8,21.3-6.1c18.4-0.8,34.8,5.4,50.3,14.6c10.5,6.2,19.9,13.8,28.9,21.9c11.1,10,21.4,20.8,31.1,32.2 c6.8,7.9,13.1,16.3,19.7,24.5c0.2,0.2,0.3,0.5,0.5,0.7c4.2,5.2,4.2,5.2,10.5,3.4c0.7-0.2,1.3-1,1.7-1.7 c6.5-12.2,12.9-24.5,19.4-36.7c2.7-5.2,5.5-10.4,8.2-15.6c0.8-1.6,2-2.7,3.8-2.5c1.9,0.1,2.9,1.4,3.5,3.3c2,6.5,4.2,13,6.3,19.5 c0.1,0.4,0.3,0.8,0.5,1.5c1.2-1.6,2.3-2.9,3.3-4.2c1.1-1.5,2.4-2.7,4.5-2.2c2,0.4,2.6,1.9,3,3.7c3.1,13.4,6.3,26.8,9.4,40.2 c0.4,1.6,1.2,2.4,2.7,3.2c6.4,3.2,12.7,6.7,19,10.1c0.5,0.3,1.1,0.7,1.2,1.1c0.7,2.3,2.6,2.5,4.5,2.8c3.1,0.6,6.2,1.1,9.3,2 c3.2,0.9,6.2,2.1,9.3,3.3c2.4,1,2.3,3.4,2.9,5.7c3.4-0.4,6.7-0.7,10.1-1.1c11.1-1.2,22.3-2.4,33.4-3.7c1.7-0.2,3.6-0.3,4.6,1.5 c1.1,1.9,0.4,3.5-0.8,5.2c-6.9,9.4-13.7,18.8-20.5,28.2c-0.3,0.4-0.5,0.8-1,1.5c4.3,0.8,8.5,1.6,12.6,2.3 c12.2,2.2,24.4,4.4,36.6,6.6c1.8,0.3,3.3,0.8,3.7,2.9c0.4,2.1-0.6,3.4-2.2,4.5c-13.8,9.3-27.6,18.7-41.4,28 c-1.9,1.2-3.2,2.5-3.8,4.9c-1,3.8-3,7.3-4.6,10.9c-0.2,0.5-0.6,1.1-0.6,1.6c0,0.8,0.1,1.8,0.5,2.3c1.4,1.5,3.1,2.8,4.6,4.2 c2.4,2.3,1.8,5.3-1.2,6.5c-2.1,0.9-4.3,1.7-6.5,2.4c-1.2,0.4-1.7,1.1-2.2,2.3c-1.7,3.8-0.4,6.6,2.1,9.7 c13.1,16.4,25.9,33.1,38.8,49.7c0.3,0.4,0.6,0.8,0.9,1.2c1,1.6,1.3,3.2,0.3,4.8c-1,1.6-2.6,1.8-4.4,1.5c-7.6-1.4-15.2-2.9-22.8-4.3 c-14.7-2.8-29.5-5.6-44.2-8.3c-0.8-0.1-1.9,0-2.5,0.5c-4.2,3.4-8.3,7.1-12.5,10.5c-1.1,0.9-1.5,1.7-1.4,3.1 c0.1,1.4,0.1,2.9,0.1,4.3c-0.1,3.4-2.5,5.1-5.7,4c-1.8-0.6-3.4-1.6-5.1-2.3c-2.2-1-4.7,0.4-5,2.8c-2.8,21.1-5.7,42.2-8.5,63.3 c-0.2,1.7-0.4,3.4-0.7,5.1c-0.3,1.8-1,3.2-3.1,3.6c-2,0.4-3.4-0.3-4.5-1.8c-1.2-1.8-2.4-3.5-3.7-5.3c-12.2-18-24.4-36-36.6-54 c-0.8-1.1-1.5-1.7-2.9-1.7c-2.3-0.1-4.6-0.4-6.9-0.5c-0.5,0-1.2,0.3-1.6,0.7c-4.5,4.8-8.9,9.6-13.3,14.4c-1.3,1.5-2.7,2.5-4.8,2.2 c-2.2-0.4-2.9-2-3.4-3.9c-1.5-5.7-3.1-11.3-4.6-17c-0.4-1.4-1-1.9-2.3-1.8c-7.2,0.5-13.9-1.7-20.4-4.4c-2.4-1-4.6-3-6.5-4.9 c-2-2-3.6-2.3-6.3-1.1c-17.2,7.3-34.5,14.3-51.7,21.4c-1.8,0.8-3.7,1.1-5.2-0.5c-1.6-1.6-1-3.4-0.1-5.2 c7.6-15.8,15.3-31.5,22.9-47.3C165.3,339.5,165.8,338.4,166.4,337z M242.6,161.3c-2.8-3.5-5.3-6.6-7.8-9.9 c-12.3-15.8-25.3-31-39.9-44.8c-11.3-10.5-22.9-20.4-36.5-27.8c-12.5-6.8-25.6-11.6-40.1-11.4c-12.8,0.2-23.7,4.3-31.6,14.9 c-2.4,3.2-5.3,6.2-7,9.7c-3.9,7.9-6.8,16.1-8.4,24.8c-0.7,3.9,0.4,6.7,4.1,8.4c3,1.4,4.8,1.2,6.5-1.5c3.7-5.6,8.3-10.3,13.8-14 c1.1-0.7,2.2-1.4,3.4-1.8c2.9-1,5.9-2,8.9-2.7c1.8-0.4,3.8-0.7,5.7-0.5c4.9,0.5,9.3,2.5,13.4,5c8.1,5.1,14.6,11.8,20.8,18.9 c11.2,13,20.7,27.3,30,41.8c4.8,7.4,9.2,15,13.8,22.5c3.1-1.6,1.8-4.1,1.4-6.3c-2.4-16.2-5-32.3-7.5-48.5c-0.5-3,2.2-5.2,5-4 c0.7,0.3,1.3,0.6,1.9,1c13.7,9.3,28,17.5,40.8,28c0.5,0.4,1.4,0.7,1.9,0.5C237.5,163,239.9,162.2,242.6,161.3z M314.7,170.1 c0.6,3.5,1.2,6.9,1.8,10.2c0.4,2.1-0.3,3.8-1.9,5.2c-1,0.8-1.9,1.8-3,2.5c-3.7,2.3-6.8,5.8-11.3,6.3c-7.1,0.7-14.1,1.1-21.2,1.6 c-0.5,0-1,0-1.5-0.2c-6.3-2-12.7-4-19-6.1c-0.7-0.2-1.3-0.6-1.9-1c-3.3-3-6.4-6.2-7.6-10.7c-0.5-1.8-0.7-3.3,0.2-4.9 c1.2-2.3,2.4-4.7,3.6-7.1c-19.6,3.3-51,21.7-56.2,33c2,0,4-0.1,5.9,0c2.8,0.2,5.7,0.1,8.3,0.9c5.3,1.5,8.8,5.4,11.6,10 c0.3,0.5,0.5,1.2,0.5,1.8c0.2,4.5,0.5,9,0.4,13.5c-0.1,2.8-0.2,5.7-1.3,8.2c-2.2,5-4.9,9.7-7.5,14.4c-1.4,2.5-2.7,5.4-4.9,7 c-5,3.6-10.4,6.5-15.8,9.6c-0.8,0.5-2,0.6-2.9,0.5c-6.2-0.9-11.7-3.3-15.5-8.6c-1.6-2.3-3.4-4.4-5.4-7c-2.6,13.6-3.3,26.8-1.1,40.1 c3.9,0.6,7.3-0.8,10.5-2.2c9-4,18-7.9,26.6-12.5c37.1-20.1,72.6-42.6,106-68.4c6.5-5,12.7-10.5,18.8-16.1c2.2-2,3.9-4.7,5.7-7.2 c0.3-0.4-0.1-1.8-0.5-2C329.4,176.5,322.3,172.6,314.7,170.1z M343.3,186c-0.9,1.3-1.3,2.3-2,3c-4.8,4.8-9.3,10.1-14.6,14.3 c-11.7,9.3-23.6,18.5-35.9,27c-30.5,21.3-62.1,41.1-95.6,57.4c-6.2,3-12.7,5.7-19.4,7.4c-4.4,1.1-6.1,3.1-6.5,7.3 c-0.3,3.5-1.2,6.9-1.8,10.3c-0.2,1.3,0.4,2.3,1.7,2.6c2.8,0.7,5.6,1.6,8.5,1.9c7.5,0.8,14.5-1.5,21.4-3.9 c23.1-8,44.5-19.4,65.3-31.9c19.9-11.9,39.2-24.7,57.2-39.4c11.2-9,22-18.3,31.4-29.4c4.6-5.4,7.6-11.3,9-18.2 c0.5-2.8,0.2-4-2.5-4.8C354.2,188.3,348.7,187.2,343.3,186z M271,286c4.4-0.6,8.6-1.4,13.1-0.3c7.9,1.8,14.1,6.2,20.3,10.7 c0.3,0.2,0.6,0.6,0.9,1c3.2,5.9,7.1,11.5,7.9,18.4c0.3,2.6,1.5,5.1,0.5,7.8c-1.7,5.2-2.5,10.7-6.4,15.5 c17.5-7.7,59.9-42.7,63.2-51.9c-4.5,1.1-8.6-1-12.9-1.4c-0.5-0.1-1-0.5-1.4-0.9c-7.2-7-13.3-14.8-15.3-25c-0.5-2.7-1.3-5.5-1.3-8.2 c0.2-5.4-1.2-11.1,1.5-16.3C319.2,254.3,295.6,270.8,271,286z M273.8,370.3c0.2-0.2,0.4-0.3,0.6-0.5c6.9-8.4,13.9-16.8,20.6-25.3 c4.6-5.7,8.6-11.7,10.9-18.8c1.9-5.7,0.1-10.7-1.9-15.7c-2.2-5.5-5.7-10.2-11.3-12.9c-0.7-0.4-1.3-1-2-1.3c-4.9-2-9.7-4.5-15.4-3.1 c-2.3,0.6-4.9,0.5-7.2,1.1c-4.1,1-8.6,1.6-12,3.7c-5.6,3.4-9.7,8.9-13.6,14.2c-0.2,0.3-0.3,0.6-0.4,1c-0.7,4.5-1.1,9,0.2,13.6 c0.7,2.5,1.3,5,3.1,7.1c3.5,4.3,6.8,8.7,10.1,13.1C261.6,354.3,267.7,362.3,273.8,370.3z M436.1,237.2c-1.1-0.2-1.6-0.4-2.2-0.5 c-15.9-2.9-31.8-5.7-47.6-8.6c-7.7-1.4-15.5-2.9-23.2-4.3c-3.5-0.6-7.1-0.3-9.4,2.7c-4.4,5.9-7.8,12.3-6.9,20.2 c0.2,1.5-0.2,3.1-0.2,4.7c0,1.2,0.1,2.4,0.3,3.6c1,6.3,3.6,12,7.4,17.1c2.9,3.9,5.8,7.7,11.4,8.1c3.3,0.2,6.4,0,9.2-1.8 c15.2-10.2,30.4-20.4,45.5-30.7C425.5,244.4,430.6,240.9,436.1,237.2z M144.1,203.4c0.6,0.9,0.9,1.3,1.3,1.8 c11.9,15.5,23.8,30.9,35.8,46.3c1.4,1.8,3.3,3.5,5.3,4.6c1.8,1,4,2.1,6.3,0.7c4-2.4,8-4.8,11.9-7.3c0.5-0.3,0.9-0.8,1.1-1.3 c3.3-5.9,6.5-11.7,9.7-17.7c0.4-0.7,0.6-1.5,0.6-2.3c0.1-4.3,0-8.6,0.2-12.8c0.2-3.1-1.8-5-3.6-6.7c-1.4-1.3-3.6-2.4-5.5-2.5 c-10.3-0.7-20.7-1-31-1.4C165.7,204.3,155.2,203.9,144.1,203.4z M288.7,112.9c-2.7,5.1-5.2,9.8-7.6,14.5 c-8.1,15.6-16.3,31.1-24.4,46.7c-0.4,0.9-0.5,2.3-0.1,3.1c1.4,2.9,3.5,5.3,6.6,6.6c1.9,0.8,3.8,1.7,5.8,2.2 c4.7,1.2,9.1,3.4,14.2,2.4c1.9-0.4,4-0.3,6-0.3c6.7,0.1,12.8-1,18.1-5.7c1.9-1.7,2.4-3.3,1.8-5.6c-0.1-0.5-0.3-1-0.4-1.4 c-5.5-17.1-10.9-34.2-16.4-51.4C291.2,120.6,290,117,288.7,112.9z M188.8,323.3c1.3,0.9,2.1,1.5,2.9,2.1c3.5,2.8,7.6,4.8,10.4,8.5 c5.8,7.7,13.2,14.5,15.7,24.3c0.5,1.8,0.8,3.6,1.3,5.8c6,2.5,30.5,0.7,38.5-3.2c-5.3-7-10.7-13.9-16-20.8c-1.7-2.3-4-4.5-4.8-7 c-1.5-4.8-3-9.8-2.4-15c0.5-4.6,0.2-9.6,4.3-13.1c0.2-0.2,0.3-0.6,0.5-0.9C222.9,311.5,206.8,319.3,188.8,323.3z M151.5,383.8 c0.1,0.1,0.3,0.3,0.4,0.4c19.6-8.1,39.3-16.2,58.9-24.3c-1.2-4.6-3.5-8.3-6.2-11.9c-6-8-12.9-14.9-21.4-20.2 c-2.2-1.3-4.1-0.9-5.1,1.3c-6.1,12.6-12.2,25.1-18.3,37.7C157,372.5,154.3,378.1,151.5,383.8z M313.4,439.2c0.2,0,0.3-0.1,0.5-0.1 c2.7-20,5.4-40.1,8.1-60.7c-14.8,3-29.2,5.9-43.8,8.9C290.1,404.9,301.7,422.1,313.4,439.2z M285.3,367.6c0.1,0.2,0.3,0.3,0.4,0.5 c47.1-16.7,83.3-46.1,105.2-91.8c-2.5,1.5-5,3.1-6.8,5.3c-4.3,5.2-7.8,11.1-12.4,15.9c-7.7,8.1-15.6,16-24.4,23 c-15.2,11.9-31,22.6-48.3,31.1c-0.7,0.3-1.4,0.8-1.8,1.4C293.1,358,289.2,362.8,285.3,367.6z M422.2,361.2 c-12.2-15.7-24.1-31-35.9-46.2c-7.3,11.8-14.5,23.6-21.8,35.4C383.6,353.9,402.7,357.5,422.2,361.2z M381.6,307.2 c-0.2-0.1-0.3-0.2-0.5-0.3c-0.9,1.3-1.9,2.5-2.7,3.8c-5.9,9.1-13.5,16.8-21.5,24c-10.8,9.7-22.6,18.2-35.4,25 c-9,4.8-18.4,8.9-27.8,12.9c-6,2.6-12.3,4.4-18.5,6.6c-0.5,0.2-1.1,0.1-1.7,0.2c-4.2,0.3-8.4,0.6-12.7,1c0,0.3,0,0.6,0,0.9 c4.1,0.2,8.3,0.8,12.4,0.4c4.1-0.4,8.1-1.7,12.1-2.7c3.6-0.9,7.2-2,10.8-2.7c5.5-1.1,10.9-2.1,16.4-3c2.7-0.5,5.4-0.8,8-1.3 c3.1-0.6,6.1-1.2,9.1-2.3c2-0.7,3.6-2.3,5.5-3.4c7.3-4.2,14.2-9.1,19.7-15.5c4.2-4.9,7.6-10.4,11-15.9c3.9-6.1,7.6-12.3,11.2-18.5 C378.8,313.4,380.1,310.3,381.6,307.2z M407.2,193.9c-1.4,0.1-2.3,0.1-3.2,0.2c-11.3,1.2-22.5,2.5-33.8,3.7 c-2.2,0.2-2.4,0.6-1.4,2.5c2.2,4.4,4.9,8.6,6.7,13.2c1.9,4.7,4.8,7.1,9.9,7.3c1.6,0.1,2.4-0.2,3.3-1.4c4.5-6.3,9.1-12.5,13.6-18.8 C403.9,198.5,405.4,196.4,407.2,193.9z M193.4,144.2c2.1,13.8,4.1,27,6.1,39.8c8.8-5.8,17.6-11.6,26.8-17.7 C215.4,159.1,204.6,151.8,193.4,144.2z M127.6,242.2c11.3,8.1,22.2,15.9,32.8,23.6c1.4-7.8,2.8-15.5,4.1-23.1 c0.1-0.5-0.2-1.3-0.5-1.7c-1.3-1.8-2.6-3.6-4.1-5.3c-0.4-0.5-1.3-0.8-1.9-0.7c-2.5,0.5-4.9,1.1-7.3,1.7 C143.1,238.5,135.6,240.3,127.6,242.2z M211.2,369.1c0.6,0.7,0.7,1,1,1.2c4.1,3,8.9,4.4,13.7,5c9.7,1.1,19.3,0.5,28.9-1.2 c3.8-0.7,7.7-0.9,12-1.3c-1.6-2.1-2.8-3.8-4.1-5.3c-0.3-0.3-1-0.4-1.5-0.3c-3.6,0.8-7.1,1.6-10.6,2.5c-8.9,2.3-17.9,2.7-27.1,2.5 c-1.1,0-2.1-0.3-3.2-0.5C217.5,370.8,214.6,370,211.2,369.1z M312.2,161.9c0.2-0.1,0.5-0.3,0.7-0.4c-2.5-10.5-4.9-21-7.4-31.7 c-2.5,1.9-3,3.9-2,6.8c2.7,7.7,5.1,15.5,7.6,23.3C311.4,160.7,311.8,161.3,312.2,161.9z M244.6,395.9c2.9-3.2,5.6-6.2,8.4-9.3 c-4.1-1.2-7.8-2.4-11.8-3.6C242.3,387.4,243.4,391.4,244.6,395.9z M369.9,218.1c-1.8-3.5-3.4-6.5-5-9.5c-2,2.8-3.8,5.5-5.7,8.1 c1.6,0.1,3.3,0.2,5,0.4C366,217.3,367.7,217.7,369.9,218.1z M167.9,330c2,0.1,4.6-4,4.1-6.9C170.5,325.6,169.2,327.7,167.9,330z"/></svg>