<svg xmlns="http://www.w3.org/2000/svg" width="512" height="512" viewBox="0 0 512 512">
    <path fill='#fff' d="M448,103c0,2.2-2.5,6.7-3.6,7.9c-32.5,33.5-66.1,60.7-104.6,87c-4.4,3-8.8,5.8-13.3,8.8c1.6,3.5,3.2,6.8,4.8,10.1 c11.7,24.6,23.4,49.2,35.1,73.8c1.6,3.3,3.2,6.6,4.6,10c0.6,1.4,0.9,3.2,0.6,4.7c-0.7,4.5-1.9,8.9-2.7,13.4c-0.4,2.3-1.7,3.7-3.6,5 c-18.6,12.5-37.3,24.9-55.9,37.4c-30.6,20.6-61.3,41.1-91.9,61.7c-17.2,11.5-34.4,23.1-51.6,34.6c-3.5,2.3-6.4,1.6-7.8-2 c-4.7-11.4-9.3-22.8-13.8-34.3c-25.2-63.4-50.4-126.9-75.6-190.4c-1.7-4.3-2.8-8.8-4.2-13.2c-0.6-2-0.3-3.7,0.9-5.4 c3.3-4.7,6.7-9.3,9.9-14.1c0.8-1.2,1.5-2.9,1.4-4.4c-0.4-14.4,2.5-28.3,5.1-42.3c1.3-6.8,2.3-13.6,2.8-20.5 c0.6-8.5-3.1-15.4-9.9-20.5c-2.3-1.7-4.7-3.3-5.7-6.2c-1.1-3.1-1.1-6.1,1.4-8.6c2.3-2.4,5.3-3.1,8.3-1.8c3.1,1.3,6.1,3,8.7,5 c9.5,7.5,15.4,17.3,17.5,29.2c1.2,6.7,0.4,13.5-0.4,20.2c-0.5,4.1-1.1,8.1-1.6,12.1c3.9,0.5,7.5,1,11.1,1.5 c8.8,1.3,17.7,2.5,26.5,3.8c8.6,1.3,17.2,2.5,25.9,3.8c7.6,1.1,15.2,2.2,22.8,3.3c7.7,1.1,15.4,2.2,23,3.3 c7.6,1.1,15.2,2.2,22.8,3.3c4.6,0.7,9.2,1.2,13.7,2c1.5,0.3,2.7,0,3.9-0.8c22.7-15.7,44-32.9,64.3-51.6 c24.4-22.6,46.9-46.9,68-72.5c1.4-1.7,3-2.4,5.1-2.7C409.1,51.2,448,79.2,448,103z M403.9,56.1 M401.1,64.6 c-7-2.3-10.6-0.3-15.3,5.4c-22,26.6-45.8,51.3-71.4,74.4C295,162,274,177.6,252.8,192.9c-6.8,4.9-14.1,9.1-21.2,13.5 c-11.5,7.1-23.6,12.8-35.8,18.5c-3.3,1.6-6.6,3.4-10,4.7c-9.2,3.6-18.4,7.4-27.8,10.4c-10.1,3.3-20.4,6.1-31.2,5.9 c-5.2-0.1-10-2-13.7-5.6c-8.7-8.5-14-19.1-17.7-30.5c-4.1-12.6-5-25.5-3.2-38.7c1.3-9.9,2.4-19.8,3.5-29.8 c0.9-7.6-0.8-14.8-4.3-21.5c-0.4-0.8-1-1.5-1.8-2.7c0,0.9-0.1,1.1,0,1.3c3,6.8,3.8,13.9,2.6,21.1c-1.7,10.4-3.7,20.7-5.5,31 c-2.2,12.3-2.7,24.7-0.8,37c1.5,9.8,3.8,19.5,7.8,28.6c2.7,6.2,5.4,12.5,10.6,17.1c3.4,2.9,7.3,5.4,11,7.9c4.2,2.8,9.1,4.1,14,4.3 c8,0.3,16,0.5,24,0c8.1-0.6,16.2-1.6,24.1-3.3c19-3.9,37.3-10,55.6-16.3c13.8-4.8,27-10.9,40.2-17.2c16.2-7.7,31.8-16.6,46.8-26.3 c14.5-9.3,28.7-19.2,42.5-29.6c25.6-19.4,49.4-40.8,72-63.6c3.3-3.3,6.7-9.1,0.8-16.8C427,81.7,413.7,68.8,401.1,64.6z M77.3,211.5 c-1.6,2.3-3,4.1-4.3,6.1c-0.3,0.4-0.3,1.3-0.1,1.8c1.9,4.6,3.8,9.1,5.7,13.6c12,29,24.1,58,36.1,87.1c13,31.4,26,62.8,39,94.2 c1.4,3.5,2.9,6.9,4.6,10.8c37.8-61.9,75.3-123.4,112.9-185c-6,2.1-11.4,4.8-17,7.1c-20.9,8.8-42.6,15.5-64.5,21.2 c-17.2,4.5-34.7,7.4-52.7,6.3c-4-0.2-7.9-0.3-11.8-0.8c-7.2-1-13.5-4.2-19.6-7.9c-6.7-4.1-11.5-9.7-15.3-16.4 c-6-10.6-9.7-22.1-11.9-34.1C78,214.3,77.7,213.1,77.3,211.5z M361.3,304.1c-14.4-30.3-28.6-60.3-42.9-90.4c-0.6,0.3-1,0.4-1.4,0.7 c-9.7,5.6-19.5,11.1-29.2,16.7c-1,0.6-1.8,1.5-2.4,2.5c-18.7,30.6-37.3,61.2-56,91.7c-18.6,30.5-37.2,60.9-55.8,91.3 c-0.8,1.2-1.5,2.5-2.2,3.8c0.1,0.1,0.3,0.2,0.4,0.3C234.9,381.9,298,343,361.3,304.1z M239,191.1c-11-1.6-21.3-3.2-31.6-4.6 c-9.8-1.4-19.6-2.7-29.4-4.1c-10.7-1.5-21.4-3.2-32.2-4.7c-11.7-1.7-23.4-3-35-5.1c-4.2-0.7-6.8-0.2-8.9,3.7c-1.1,2-2,3.8-1.9,6.1 c0.4,4.6,0.2,9.3,1,13.8c2.3,13.3,7.5,25.4,16.2,35.8c2.7,3.3,6.2,5.4,10.7,5.2c9.2-0.5,18.1-2.7,26.9-5.4c12.9-4,25.3-9.2,37.5-15 c15.1-7.2,30.1-14.7,44.1-23.9C237.2,192.3,237.9,191.9,239,191.1z M164.5,449.5c0.8-0.5,1.4-0.8,1.9-1.2 c30-20.1,60.1-40.3,90.1-60.4c33.8-22.7,67.6-45.4,101.4-68c1.8-1.2,2.3-2.6,2.3-4.9c-2.8,1.7-5.3,3.3-7.8,4.8 c-31.5,19.4-63,38.8-94.5,58.2c-21.3,13.1-42.5,26.2-63.8,39.2c-10,6.2-20,12.3-30,18.5c-0.7,0.4-1.7,1.4-1.6,2 C163,441.6,163.8,445.4,164.5,449.5z"/>
</svg>
