<svg xmlns="http://www.w3.org/2000/svg" width="512" height="512" viewBox="0 0 512 512">
    <path fill='#fff' d="M412.8,246.8c2.9,7.6,5.7,15.3,8.7,22.8c1.3,3.2,1.7,6.3,0.6,9.7c-1.9,5.7-3.5,11.4-5.2,17.2c-0.7,2.3-2,3.8-4.2,4.8 c-24.3,11.3-48.5,22.7-72.8,34.1c-53,24.9-106,49.8-159,74.8c-27.7,13-55.5,26.1-83.2,39.1c-4.7,2.2-6.8,1.3-8.6-3.6 c-3-8.4-6.4-16.7-8.9-25.2c-1.5-5.2-2-10.7-2.5-16.2c-3-31.1-5.9-62.2-8.7-93.4c-2.5-26.8-4.9-53.6-7.4-80.3 c-1.9-20.4-3.8-40.8-5.6-61.1c-0.2-1.7,0.3-3.8,1.3-5.3c12.7-19.7,25.6-39.3,38.3-59c1.4-2.2,3.2-3.4,5.7-3.8 C137.9,94.7,174.5,88,211,81.3c34.1-6.3,68.3-12.5,102.4-19c9.4-1.8,18.4,0.3,27.5,1.3c1.2,0.1,2.7,1.9,3.2,3.2 c5.5,14.2,10.9,28.4,16.4,42.7c2.4,6.4,4.9,12.8,7.3,19.2c0.6,1.7,1.5,2.1,3.2,1.9c25.1-3.4,50.3-4.6,75.6-4.7c0.9,0,1.9,0,2.8,0.1 c4.3,0.4,6.9,2.6,6.6,6.9c-0.4,7.5-1.2,15-2.2,22.5c-0.2,1.6-1.8,3.6-3.4,4.4c-1.7,1-2.3,2.1-2.5,3.8c-1,6.7-1.9,13.4-3.1,20 c-2.5,13.8-5.7,27.5-12.3,40.1c-4.5,8.7-10.4,16.3-18.5,22C413.6,246,413.3,246.4,412.8,246.8z M95.1,405.9 c0.1,0.1,0.3,0.3,0.4,0.4c106.1-44.6,212.1-89.2,318.3-133.9c-2.8-7.3-5.4-14.3-8.1-21.2c-0.3-0.1-0.4-0.1-0.5-0.1 c-0.5,0.2-1,0.4-1.4,0.6c-8.8,3.9-17.9,5.8-27.5,3.9c-10.1-2-18.9-6.2-25.7-14.2c-5.7-6.7-9.5-14.4-12.6-22.5 c-3-8-5.3-16.2-8.1-24.3c-0.8-2.3-2.2-4.4-3.6-7.3c-1.6,1.9-2.8,2.9-3.4,4.2c-1.4,3.3-2.8,6.6-3.6,10.1 c-3.9,16.7-8.3,33.2-15.5,48.8c-9.3,20.2-23.4,36.1-42.2,47.8c-15.2,9.5-32,14.7-49.8,17.3c-11.8,1.7-23.4,1.2-34.7-2.3 c-5.2-1.6-10.1-3.9-15.4-5.9C139.6,340,117.3,372.9,95.1,405.9z M447.8,134.2c-1.1,0-2.1,0-3,0c-30.5-0.2-60.9,2.4-91.1,6.9 c-15.3,2.2-30.8,3.5-46.2,3.9c-25.6,0.7-51.2,1-76.8,1.7c-7.4,0.2-14.9,0.7-22.3,1.2c-8.9,0.6-17.7,1.2-26.6,1.9 c-7.2,0.5-14.5,1.1-21.7,1.7c-7,0.6-14,1.2-20.9,1.9c-6.4,0.6-12.8,1.1-19.1,1.7c-8.4,0.8-16.8,1.6-25.3,2.4c-4.7,0.5-9.3,1-14,1.6 c-2,0.3-2.9,1.2-2.3,3.5c2.9,11.1,5.6,22.2,8.5,33.3c1.6,6.3,1.6,6.2,7.9,5.8c1-0.1,2.1,0.1,3.1-0.1c5.1-1.4,8.5,1,11.5,4.8 c4.6,5.7,7,12.5,8.9,19.4c5.7,20.6,14.3,39.7,27.9,56.4c16,19.5,36.8,27.8,61.8,25.3c10.6-1,20.8-3.8,30.8-7.6 c24.7-9.4,43.3-25.8,55.5-49.3c7.6-14.7,12.1-30.5,15.8-46.5c1.4-6.1,2.4-12.3,5.9-17.6c2.6-3.9,5.6-7.5,10.8-7 c5.4,0.5,8.1,4.4,10,8.9c1.5,3.6,2.5,7.5,3.6,11.2c3.4,11,7,21.8,13.3,31.6c7.9,12.3,21.9,18.6,36.2,16.1c5-0.9,9.7-2.7,14-5.5 c-1.2,0.2-2.3,0.6-3.4,1c-16.2,6.1-31.4,1.5-40.4-13.2c-9.4-15.4-14.4-32.4-14.8-50.6c-0.2-7.5,1.8-14.7,8.1-19.4 c4-3,8.5-5.4,13.2-7.2c13.2-5.1,27.2-7.5,41.3-8.2c7.7-0.4,15.4,0.1,23,0.8c5.8,0.5,10.5,2.9,11.3,9.7c0.9-0.5,1.6-0.9,2.2-1.3 c0.6-0.5,1.6-1,1.7-1.6C446.8,146,447.2,140.2,447.8,134.2z M311.1,71.2c-0.8,0.1-1,0.1-1.3,0.2c-31.5,5.8-63.1,11.5-94.6,17.3 c-36.8,6.8-73.7,13.6-110.5,20.4c-1.2,0.2-2.5,1.1-3.2,2.1c-8.5,12.8-16.9,25.8-25.3,38.7c-0.3,0.5-0.6,1.1-0.9,1.8 c1.7-0.4,3-0.9,4.3-1c5-0.6,10-1.2,15-1.7c8.2-0.8,16.5-1.7,24.7-2.4c8.4-0.8,16.8-1.4,25.3-2.2c9-0.8,18-1.7,27.1-2.4 c8-0.6,16-1.1,24-1.7c9.7-0.7,19.4-1.5,29.2-1.9c13.1-0.6,26.2-0.9,39.3-1.2c1.7,0,2.8-0.6,3.7-2.1c10.2-15.2,20.5-30.3,30.8-45.5 C302.8,83.7,306.8,77.6,311.1,71.2z M155,302.2c-7.2-5.2-13.1-11.3-18.2-18.2c-12.7-16.9-21.1-35.9-26.6-56.2 c-1.6-5.9-3.5-11.7-7.7-16.3c-0.8-0.9-2.2-1.5-3.4-1.5c-2.7-0.1-5.5,0.4-8.2,0.4c-6.7,0.1-9.3-1.8-11-8.3 c-3.6-13.8-7-27.6-10.6-41.3c-0.8,1.2-1.6,2.8-2.8,4.2c-2.2,2.6-2.4,5.4-2.1,8.6c1.3,12,2.3,24,3.5,36c2,21.1,3.9,42.3,5.8,63.4 c2,21.2,4,42.4,6,63.7c1.8,19.3,3.5,38.5,5.3,57.8c0.3,3,0.6,6,1,9.6C109.2,369.7,132,336.1,155,302.2z M412.7,282.1 c-108.5,45.6-216.4,91-324.5,136.5c2.7,7.6,5.4,14.9,8,22.3c1.4-0.6,2.4-1.1,3.5-1.6c37.4-17.6,74.9-35.2,112.3-52.7 c34.2-16.1,68.3-32.1,102.5-48.2c31-14.6,62-29.1,93-43.7c0.7-0.3,1.6-0.7,1.8-1.3C410.4,289.8,411.4,286.2,412.7,282.1z M417.8,152.1c-4.8,0.3-8.2,0.4-11.6,0.7c-13.3,1-26.3,3.2-38.7,8.3c-10.7,4.3-14.2,9.3-13.6,20.5c0.8,15.8,5.5,30.4,13.6,43.9 c6.4,10.6,17.4,14,29.2,9.9c13-4.5,21.3-13.6,26-26.2c6.4-16.6,9.2-34.1,11.2-51.7c0.3-2.6-0.8-3.9-3.2-4.2 C425.9,152.8,421.2,152.4,417.8,152.1z M360.2,131.6c-7.6-20-15-39.6-22.6-59.1c-0.2-0.6-1.3-1.3-2-1.4c-3.7-0.5-7.5-0.7-11.2-1.2 c-1.6-0.2-2.3,0.3-3.1,1.5c-14.3,21.1-28.6,42.3-42.9,63.4c-0.4,0.6-0.7,1.2-1.2,2.1C305.1,136.9,332.6,136.2,360.2,131.6z"/>
    <path fill='#fff' d="M308.7,189.4c-0.8,18.1-6.1,35.1-12.8,51.7c-4.6,11.3-11.1,21.4-19.6,30.1c-8.9,9.1-19.1,16.2-31,21 c-12.4,5.1-25.3,8.4-38.8,9c-22.2,0.9-39.8-8.1-52.8-26c-8.6-11.8-14.8-24.8-20.5-38.1c-4.5-10.4-8.7-21-11.1-32.1 c-0.6-2.8-1.1-5.8-1-8.6c0.1-5.8,3.5-9.7,8.3-12.4c8.5-4.9,17.8-7.2,27.2-9.5c21.6-5.2,43.6-8.6,65.7-11 c15.6-1.6,31.2-2.7,46.9-1.9c7.2,0.4,14.5,1.4,21.5,3c12.6,3,18.1,10.6,18,23.5C308.7,188.6,308.7,189,308.7,189.4z M204.4,292.8 c8.6,0,17.6-1.7,26.4-4.3c18.2-5.3,33.4-15,45.2-30c7.2-9,12-19.3,15.8-30c4.8-13.4,8.6-27,8.5-41.4c0-7.6-3.2-12.2-10.5-14.1 c-4.8-1.3-9.9-2.2-14.9-2.6c-15.9-1.4-31.8-0.4-47.7,1.1c-20.2,1.9-40.2,4.8-60.1,9.2c-10.4,2.3-20.9,4.5-30.6,9.2 c-7.5,3.6-7.7,5-6.5,11.9c0.1,0.8,0.2,1.5,0.4,2.3c6.6,23.4,15.9,45.7,29.8,65.7C170.6,284.7,185,293.1,204.4,292.8z"/>
</svg>
