<svg xmlns="http://www.w3.org/2000/svg" width="24" height="24" viewBox="0 0 24 24" xml:space="preserve" style="enable-background:new 0 0 24 24"><path d="M19.6,5c-1.4-0.6-2.9-1.1-4.5-1.4c0,0-0.1,0-0.1,0c-0.2,0.3-0.4,0.8-0.6,1.1c-1.7-0.3-3.4-0.3-5,0	C9.3,4.4,9.1,4,8.9,3.7c0,0,0,0-0.1,0C7.3,3.9,5.8,4.4,4.4,5c0,0,0,0,0,0c-2.9,4.3-3.6,8.4-3.3,12.5c0,0,0,0,0,0.1	C3,19,4.8,19.8,6.6,20.4c0,0,0.1,0,0.1,0c0.4-0.6,0.8-1.2,1.1-1.8c0,0,0-0.1,0-0.1c-0.6-0.2-1.2-0.5-1.7-0.8c0,0,0-0.1,0-0.1	c0.1-0.1,0.2-0.2,0.3-0.3c0,0,0,0,0.1,0c3.6,1.6,7.5,1.6,11.1,0c0,0,0.1,0,0.1,0c0.1,0.1,0.2,0.2,0.3,0.3c0,0,0,0.1,0,0.1	c-0.5,0.3-1.1,0.6-1.7,0.8c0,0-0.1,0.1,0,0.1c0.3,0.6,0.7,1.2,1.1,1.8c0,0,0,0,0.1,0c1.8-0.6,3.6-1.4,5.5-2.8c0,0,0,0,0-0.1	C23.4,12.8,22.1,8.7,19.6,5C19.6,5,19.6,5,19.6,5z M8.4,15.1c-1.1,0-2-1-2-2.2s0.9-2.2,2-2.2c1.1,0,2,1,2,2.2	C10.3,14.1,9.5,15.1,8.4,15.1z M15.7,15.1c-1.1,0-2-1-2-2.2s0.9-2.2,2-2.2c1.1,0,2,1,2,2.2C17.6,14.1,16.8,15.1,15.7,15.1z" style="fill:#fff"/></svg>