<svg xmlns="http://www.w3.org/2000/svg" width="24" height="24" viewBox="0 0 24 24" style="enable-background:new 0 0 24 24" xml:space="preserve">
	<path d="M4.9,11.6l3.7-3.7c0.2-0.2,0.6-0.2,0.8,0l3.7,3.7c0.2,0.2,0.2,0.6,0,0.8l-3.7,3.7c-0.2,0.2-0.6,0.2-0.8,0	l-3.7-3.7C4.6,12.2,4.6,11.8,4.9,11.6z M4.2,20.1l7.7-7.7c0.2-0.2,0.2-0.6,0-0.8L4.2,3.9C4,3.7,4,3.3,4.2,3.1C4.3,3.1,4.4,3,4.6,3	H11c0.1,0,0.3,0.1,0.4,0.2l8.4,8.4c0.2,0.2,0.2,0.6,0,0.8l-8.4,8.4C11.3,20.9,11.1,21,11,21H4.6C4.2,21,4,20.8,4,20.4	C4,20.3,4.1,20.2,4.2,20.1z" style="fill:#202020"/>
	<path d="M10.9,3.9H5.3l8.1,8.1l-8.1,8.1h5.6L19,12L10.9,3.9z" style="fill:#FFFFFF"/>
	<path d="M5.9,12l3-3l3,3l-3,3L5.9,12z" style="fill:#1795D2"/>
</svg>
