<svg xmlns="http://www.w3.org/2000/svg" width="24" height="24" viewBox="0 0 24 24"><path fill="#fff" d="M10.5,15.1c0-0.6,0.1-1.2,0.3-1.7c0.2-0.5,0.5-1.2,1-1.9c0.6-0.8,1-1.5,1.2-2.1s0.3-1.2,0.3-1.9c0-0.6-0.1-1-0.3-1.3 c-0.2-0.3-0.6-0.4-1-0.4s-0.8,0.1-1,0.4c-0.2,0.3-0.3,0.7-0.3,1.3v1.8H8.1V7.7c0-1.4,0.3-2.4,1-3.1c0.7-0.7,1.6-1.1,2.9-1.1 c1.3,0,2.3,0.4,2.9,1.1c0.7,0.7,1,1.8,1,3.1c0,0.7-0.1,1.4-0.4,2.1c-0.3,0.7-0.7,1.4-1.4,2.3c-0.5,0.7-0.9,1.3-1.1,1.7 c-0.2,0.5-0.3,0.9-0.3,1.3v0.9h-2.3V15.1z M10.3,18h2.5v2.5h-2.5V18z"/></svg>