<svg xmlns="http://www.w3.org/2000/svg" width="24" height="24" viewBox="0 0 24 24">
    <path fill="#fff" d="M11.2,10.7V16c0,1.4-0.3,2.4-1,3.1s-1.6,1.1-2.9,1.1S5,19.8,4.4,19.1c-0.7-0.7-1-1.8-1-3.1V7.3	c0-1.4,0.3-2.4,1-3.1S6,3.1,7.3,3.1s2.3,0.4,2.9,1.1s1,1.8,1,3.1v1.6H8.7V7.1c0-1.1-0.5-1.7-1.4-1.7S6,6,6,7.1v9.1	c0,1.1,0.5,1.6,1.4,1.6s1.4-0.5,1.4-1.6v-3.1H7.5v-2.4C7.5,10.7,11.2,10.7,11.2,10.7z M17.8,5.9c-0.2-0.3-0.6-0.4-1-0.4	c-0.9,0-1.4,0.6-1.4,1.7V9h-2.5V7.3c0-1.4,0.3-2.4,1-3.1s1.6-1.1,2.9-1.1s2.3,0.4,2.9,1.1s1,1.8,1,3.1c0,0.9-0.2,1.8-0.5,2.6	c-0.3,0.8-0.7,1.5-1.1,2.1s-1,1.2-1.7,2s-1.2,1.4-1.5,1.9c-0.3,0.5-0.5,1-0.5,1.5c0,0.2,0,0.3,0,0.4h5v2.4h-7.6V18	c0-0.8,0.1-1.5,0.4-2.1c0.2-0.6,0.5-1.2,0.9-1.6c0.4-0.5,0.8-1,1.4-1.6c0.6-0.7,1.1-1.2,1.4-1.6c0.3-0.4,0.6-1,0.9-1.6	c0.2-0.6,0.3-1.3,0.3-2C18.1,6.7,18,6.2,17.8,5.9z"/>
</svg>
