<svg xmlns="http://www.w3.org/2000/svg" width="24" height="24" viewBox="0 0 24 24">
	<path fill="#fff" d="M11.2 10.7V16c0 1.4-.3 2.4-1 3.1-.7.7-1.6 1.1-2.9 1.1-1.3 0-2.3-.4-2.9-1.1-.7-.7-1-1.8-1-3.1V7.3c0-1.4.3-2.4 1-3.1S6 3.1 7.3 3.1c1.3 0 2.3.4 2.9 1.1s1 1.8 1 3.1v1.6H8.7V7.1c0-1.1-.5-1.7-1.4-1.7S6 6 6 7.1v9.1c0 1.1.5 1.6 1.4 1.6s1.4-.5 1.4-1.6v-3.1H7.5v-2.4H11.2zM17.6 5.9c-.2-.3-.6-.4-1-.4-.9 0-1.4.6-1.4 1.7v1.1h-2.5V7.3c0-1.4.3-2.4 1-3.1.7-.7 1.6-1.1 2.9-1.1 1.3 0 2.3.4 2.9 1.1s1 1.8 1 3.1v.4c0 .9-.2 1.7-.5 2.2-.3.6-.8 1-1.4 1.2 1.2.5 1.8 1.7 1.8 3.5V16c0 1.4-.3 2.4-1 3.1-.7.7-1.6 1.1-2.9 1.1-1.3 0-2.3-.4-2.9-1.1-.7-.7-1-1.8-1-3.1v-1.4h2.5v1.6c0 1.1.5 1.7 1.4 1.7.4 0 .8-.1 1-.4.2-.3.3-.8.3-1.5v-1.3c0-.8-.1-1.3-.4-1.6-.3-.3-.7-.5-1.3-.5h-.9v-2.4h1c.5 0 .9-.1 1.2-.4C17.8 9.4 18 9 18 8.3V7.4C18 6.7 17.9 6.2 17.6 5.9z"/>
</svg>
