<svg xmlns="http://www.w3.org/2000/svg" width="24" height="24" viewBox="0 0 24 24"><path fill="#fff" d="M11.2 10.7V16c0 1.4-.3 2.4-1 3.1-.7.7-1.6 1.1-2.9 1.1-1.3 0-2.3-.4-2.9-1.1-.7-.7-1-1.8-1-3.1V7.3c0-1.4.3-2.4 1-3.1S6 3.1 7.3 3.1c1.3 0 2.3.4 2.9 1.1s1 1.8 1 3.1v1.6H8.7V7.1c0-1.1-.5-1.7-1.4-1.7S6 6 6 7.1v9.1c0 1.1.5 1.6 1.4 1.6s1.4-.5 1.4-1.6v-3.1H7.5v-2.4H11.2zM15.3 16.2c0 1.1.5 1.6 1.4 1.6s1.4-.5 1.4-1.6v-3.7c0-1.1-.5-1.7-1.4-1.7s-1.4.6-1.4 1.7V13h-2.5l.5-9.7h7v2.4h-4.6l-.2 4c.5-.8 1.3-1.2 2.3-1.2 1 0 1.7.3 2.2 1s.7 1.6.7 2.9V16c0 1.4-.3 2.4-1 3.1-.7.7-1.6 1.1-2.9 1.1-1.3 0-2.3-.4-2.9-1.1-.7-.7-1-1.8-1-3.1v-1.4h2.5V16.2z"/></svg>