<svg xmlns="http://www.w3.org/2000/svg" width="24" height="24" viewBox="0 0 24 24">
	<path fill="#fff" d="M11.2 10.7V16c0 1.4-.3 2.4-1 3.1-.7.7-1.6 1.1-2.9 1.1-1.3 0-2.3-.4-2.9-1.1-.7-.7-1-1.8-1-3.1V7.3c0-1.4.3-2.4 1-3.1S6 3.1 7.3 3.1c1.3 0 2.3.4 2.9 1.1s1 1.8 1 3.1v1.6H8.7V7.1c0-1.1-.5-1.7-1.4-1.7S6 6 6 7.1v9.1c0 1.1.5 1.6 1.4 1.6s1.4-.5 1.4-1.6v-3.1H7.5v-2.4H11.2zM16.8 3.1c1.3 0 2.3.4 2.9 1.1s1 1.8 1 3.1v.4h-2.5V7.1c0-1.1-.5-1.7-1.4-1.7-.5 0-.9.2-1.1.5-.2.3-.4.8-.4 1.6v3.1c.5-1 1.3-1.5 2.4-1.5 1 0 1.7.3 2.2 1s.7 1.6.7 2.9V16c0 1.3-.3 2.4-1 3.1-.7.7-1.7 1.1-3 1.1-1.3 0-2.3-.4-3-1.1-.7-.7-1-1.8-1-3.1V7.4C12.7 4.5 14.1 3.1 16.8 3.1zM15.4 13.2v3c0 1.1.5 1.6 1.4 1.6s1.4-.5 1.4-1.6v-3c0-1.1-.5-1.7-1.4-1.7S15.4 12.1 15.4 13.2z"/>
</svg>
