<svg xmlns="http://www.w3.org/2000/svg" width="24" height="24" viewBox="0 0 24 24">
    <path fill="#fff" d="M10.6 5.3c.6.6.9 1.5.9 2.7v1.9c0 1.2-.3 2.1-.9 2.7C10 13.2 9.1 13.5 8 13.5H6.9v5.5H4.6V4.4H8C9.1 4.4 10 4.7 10.6 5.3zM6.9 11.4H8c.4 0 .7-.1.9-.3C9 10.9 9.1 10.5 9.1 10V7.8C9.1 7.3 9 7 8.8 6.8 8.6 6.6 8.3 6.5 8 6.5H6.9V11.4zM18.7 5.2c.5.6.8 1.4.8 2.6v.5c0 .8-.1 1.4-.4 1.9-.2.5-.6.9-1.1 1.1 1.1.4 1.7 1.5 1.7 3.2v1.2c0 1.1-.3 2-.9 2.6-.6.6-1.5.9-2.6.9h-3.6V4.4h3.5C17.3 4.4 18.1 4.6 18.7 5.2zM14.9 10.3h.9c.5 0 .8-.1 1-.4.2-.2.3-.6.3-1.2V8c0-.5-.1-.9-.3-1.2-.2-.2-.5-.4-.9-.4h-1.1V10.3zM14.9 17h1.3c.4 0 .7-.1.9-.3.2-.2.3-.6.3-1.1v-1.3c0-.7-.1-1.1-.3-1.4-.2-.3-.6-.4-1.1-.4h-1V17z" style="fill:#FFFFFF"/>
</svg>
