<svg xmlns="http://www.w3.org/2000/svg" width="24" height="24" viewBox="0 0 24 24">
	<path fill="#fff" d="M9.4 2.8V4H8v7.2H6.7V4H5.3V2.8H9.4zM10.4 3.3c.3-.4.8-.6 1.5-.6.6 0 1.1.2 1.5.6.3.4.5.9.5 1.6v4.4c0 .7-.2 1.2-.5 1.6s-.8.6-1.5.6c-.6 0-1.1-.2-1.5-.6-.3-.4-.5-.9-.5-1.6V4.8C9.9 4.1 10.1 3.6 10.4 3.3zM11.9 10.1c.5 0 .7-.3.7-.8V4.7c0-.6-.2-.8-.7-.8s-.7.3-.7.8v4.5C11.2 9.8 11.4 10.1 11.9 10.1zM18.2 3.3c.3.4.5.9.5 1.5V6c0 .7-.2 1.2-.5 1.5C17.8 7.9 17.3 8 16.7 8h-.6v3.2h-1.3V2.8h1.9C17.3 2.8 17.8 3 18.2 3.3zM16.1 6.8h.6c.2 0 .4-.1.5-.2s.2-.3.2-.6V4.8c0-.3-.1-.5-.2-.6C17.1 4.1 16.9 4 16.7 4h-.6V6.8zM8.3 13.7c.2-.1.3-.2.4-.4C8.8 13.2 8.9 13 9 12.8h.9v8.4H8.6v-6.4h-1v-.9C7.9 13.9 8.1 13.8 8.3 13.7zM11.9 13.3c.3-.4.8-.6 1.5-.6.6 0 1.1.2 1.5.6.3.4.5.9.5 1.6v4.4c0 .7-.2 1.2-.5 1.6s-.8.6-1.5.6c-.6 0-1.1-.2-1.5-.6-.3-.4-.5-.9-.5-1.6v-4.4C11.4 14.1 11.6 13.6 11.9 13.3zM13.4 20.1c.5 0 .7-.3.7-.8v-4.5c0-.6-.2-.8-.7-.8s-.7.3-.7.8v4.5C12.7 19.8 12.9 20.1 13.4 20.1z"/>
</svg>