<svg xmlns="http://www.w3.org/2000/svg" width="24" height="24" viewBox="0 0 24 24"><path fill="#fff" d="M7.2 18.7h-3l-1.6-14h2.1l1.2 11L7 4.7h2.1l1.1 11.1 1.1-11.1h1.9l-1.6 14H8.8L8 11.3 7.2 18.7zM18.9 18.1c0-.2 0-.6 0-1.1v-2.2c0-.6-.1-1.1-.3-1.4-.2-.3-.6-.4-1.1-.4h-.8v5.7h-2.2v-14h3.3c1.1 0 2 .3 2.5.8C20.7 6 21 6.8 21 7.9V9c0 1.4-.5 2.4-1.4 2.8.5.2.9.6 1.1 1.1s.3 1.1.3 1.9V17c0 .4 0 .7 0 1 0 .2.1.5.2.7H19C18.9 18.5 18.9 18.3 18.9 18.1zM16.6 11h.9c.4 0 .8-.1 1-.3.2-.2.3-.6.3-1.1V8.2c0-.5-.1-.9-.3-1.1s-.5-.3-.9-.3h-1.1V11z"/></svg>