<svg xmlns="http://www.w3.org/2000/svg" width="24" height="24" viewBox="0 0 24 24"><path fill="#fff" d="M5.8 16.7H3.7L2.6 6.9h1.5l.8 7.7.7-7.7h1.5l.8 7.8.8-7.8h1.3L9 16.7h-2l-.6-5.2L5.8 16.7zM14 16.2c0-.1 0-.4 0-.8v-1.5c0-.4-.1-.8-.2-1-.2-.2-.4-.3-.8-.3h-.5v4h-1.5V6.9h2.3c.8 0 1.4.2 1.7.6.4.4.5.9.5 1.7v.8c0 1-.3 1.7-1 2 .4.1.6.4.8.7.2.3.2.8.2 1.3v1.5c0 .3 0 .5 0 .7s.1.3.1.5h-1.6C14 16.5 14 16.4 14 16.2zM12.4 11.3H13c.3 0 .5-.1.7-.2.2-.2.2-.4.2-.8v-1c0-.4-.1-.6-.2-.8-.1-.2-.3-.2-.6-.2h-.7V11.3zM20.5 7.4c.4.4.5.9.5 1.7v.3c0 .5-.1.9-.2 1.2-.2.3-.4.6-.7.7.8.3 1.1 1 1.1 2.1v.8c0 .8-.2 1.3-.6 1.7-.4.4-1 .6-1.7.6h-2.4V6.9h2.3C19.6 6.9 20.2 7.1 20.5 7.4zM18 10.9h.6c.3 0 .5-.1.7-.2.2-.2.2-.4.2-.8V9.3c0-.4-.1-.6-.2-.8-.1-.2-.3-.2-.6-.2H18V10.9zM18 15.3h.9c.3 0 .5-.1.6-.2s.2-.4.2-.7v-.9c0-.4-.1-.8-.2-.9-.2-.2-.4-.3-.8-.3H18V15.3z"/></svg>